<svg xmlns="http://www.w3.org/2000/svg"  viewBox="0 0 64 64" width="64px" height="64px"><linearGradient id="8hD4rQAUvDlnOcrtKRMHva" x1="32" x2="32" y1="542.25" y2="590.76" gradientTransform="translate(0 -534)" gradientUnits="userSpaceOnUse"><stop offset="0" stop-color="#1a6dff"/><stop offset="1" stop-color="#c822ff"/></linearGradient><path fill="url(#8hD4rQAUvDlnOcrtKRMHva)" d="M51,56H13c-2.757,0-5-2.243-5-5V13c0-2.757,2.243-5,5-5h38c2.757,0,5,2.243,5,5v38	C56,53.757,53.757,56,51,56z M13,10c-1.654,0-3,1.346-3,3v38c0,1.654,1.346,3,3,3h38c1.654,0,3-1.346,3-3V13c0-1.654-1.346-3-3-3H13	z"/><linearGradient id="8hD4rQAUvDlnOcrtKRMHvb" x1="32" x2="32" y1="19.092" y2="45.092" gradientUnits="userSpaceOnUse"><stop offset="0" stop-color="#6dc7ff"/><stop offset="1" stop-color="#e6abff"/></linearGradient><path fill="url(#8hD4rQAUvDlnOcrtKRMHvb)" d="M44.973,22.703l2.768-2.334c0.513-0.433,0.211-1.276-0.457-1.276h-8.022l-6.774,16.448	l-7.504-16.449h-5.71h-2.56c-0.636,0-0.954,0.778-0.505,1.233l3.065,3.101v2.166V40.76l-2.855,4.333h8.566l-2.855-4.334V27.036	l6.425,18.056h3.569l7.139-18.056v15.167l-2.855,2.889H47.83l-2.855-2.889v-19.5H44.973z"/></svg>