<svg xmlns="http://www.w3.org/2000/svg"  viewBox="0 0 100 100" width="100px" height="100px"><circle cx="50" cy="50" r="35" fill="#fefdef"/><path fill="#e9e3c9" d="M50,16c-18.78,0-34,15.22-34,34c0,18.78,15.22,34,34,34s34-15.22,34-34C84,31.22,68.78,16,50,16z M50,69c-10.49,0-19-8.51-19-19s8.51-19,19-19s19,8.51,19,19S60.49,69,50,69z"/><circle cx="50" cy="50" r="35" fill="none" stroke="#1f212b" stroke-linejoin="round" stroke-width="2"/><circle cx="50" cy="50" r="26.5" fill="none" stroke="#1f212b" stroke-linecap="round" stroke-linejoin="round"/><path fill="none" stroke="#1f212b" stroke-linecap="round" stroke-linejoin="round" d="M56.615,31.655 c1.266,0.458,2.472,1.043,3.601,1.741"/><path fill="none" stroke="#1f212b" stroke-linecap="round" stroke-linejoin="round" d="M68.255,43.142 C69.06,45.277,69.5,47.588,69.5,50c0,10.752-8.748,19.5-19.5,19.5S30.5,60.752,30.5,50S39.248,30.5,50,30.5 c1.256,0,2.484,0.119,3.674,0.347"/><path fill="none" stroke="#1f212b" stroke-linecap="round" stroke-linejoin="round" d="M62.679,35.196 c1.72,1.475,3.181,3.245,4.305,5.229"/><line x1="50" x2="50" y1="23.5" y2="30.312" fill="none" stroke="#1f212b" stroke-linecap="round" stroke-linejoin="round"/><line x1="38.502" x2="41.458" y1="26.124" y2="32.262" fill="none" stroke="#1f212b" stroke-linecap="round" stroke-linejoin="round"/><line x1="29.281" x2="34.607" y1="33.478" y2="37.725" fill="none" stroke="#1f212b" stroke-linecap="round" stroke-linejoin="round"/><line x1="24.164" x2="30.806" y1="44.103" y2="45.619" fill="none" stroke="#1f212b" stroke-linecap="round" stroke-linejoin="round"/><line x1="24.164" x2="30.806" y1="55.897" y2="54.381" fill="none" stroke="#1f212b" stroke-linecap="round" stroke-linejoin="round"/><line x1="29.281" x2="34.607" y1="66.522" y2="62.275" fill="none" stroke="#1f212b" stroke-linecap="round" stroke-linejoin="round"/><line x1="38.502" x2="41.458" y1="73.876" y2="67.738" fill="none" stroke="#1f212b" stroke-linecap="round" stroke-linejoin="round"/><line x1="50" x2="50" y1="76.5" y2="69.688" fill="none" stroke="#1f212b" stroke-linecap="round" stroke-linejoin="round"/><line x1="61.498" x2="58.542" y1="73.876" y2="67.738" fill="none" stroke="#1f212b" stroke-linecap="round" stroke-linejoin="round"/><line x1="70.719" x2="65.393" y1="66.522" y2="62.275" fill="none" stroke="#1f212b" stroke-linecap="round" stroke-linejoin="round"/><line x1="75.836" x2="69.194" y1="55.897" y2="54.381" fill="none" stroke="#1f212b" stroke-linecap="round" stroke-linejoin="round"/><line x1="75.836" x2="69.194" y1="44.103" y2="45.619" fill="none" stroke="#1f212b" stroke-linecap="round" stroke-linejoin="round"/><line x1="70.719" x2="65.393" y1="33.478" y2="37.725" fill="none" stroke="#1f212b" stroke-linecap="round" stroke-linejoin="round"/><line x1="61.498" x2="58.542" y1="26.124" y2="32.262" fill="none" stroke="#1f212b" stroke-linecap="round" stroke-linejoin="round"/><line x1="50" x2="50" y1="15" y2="23" fill="none" stroke="#1f212b" stroke-linecap="round" stroke-linejoin="round"/><line x1="41.624" x2="43.538" y1="16.017" y2="23.785" fill="none" stroke="#1f212b" stroke-linecap="round" stroke-linejoin="round"/><line x1="33.735" x2="37.452" y1="19.009" y2="26.093" fill="none" stroke="#1f212b" stroke-linecap="round" stroke-linejoin="round"/><line x1="26.791" x2="32.096" y1="23.802" y2="29.79" fill="none" stroke="#1f212b" stroke-linecap="round" stroke-linejoin="round"/><line x1="21.196" x2="27.779" y1="30.118" y2="34.662" fill="none" stroke="#1f212b" stroke-linecap="round" stroke-linejoin="round"/><line x1="17.274" x2="24.755" y1="37.589" y2="40.426" fill="none" stroke="#1f212b" stroke-linecap="round" stroke-linejoin="round"/><line x1="15.255" x2="23.197" y1="45.781" y2="46.746" fill="none" stroke="#1f212b" stroke-linecap="round" stroke-linejoin="round"/><line x1="21.495" x2="23.197" y1="53.461" y2="53.254" fill="none" stroke="#1f212b" stroke-linecap="round" stroke-linejoin="round"/><line x1="15.255" x2="18.539" y1="54.219" y2="53.82" fill="none" stroke="#1f212b" stroke-linecap="round" stroke-linejoin="round"/><line x1="17.274" x2="24.755" y1="62.411" y2="59.574" fill="none" stroke="#1f212b" stroke-linecap="round" stroke-linejoin="round"/><line x1="21.196" x2="27.779" y1="69.882" y2="65.338" fill="none" stroke="#1f212b" stroke-linecap="round" stroke-linejoin="round"/><line x1="26.791" x2="32.096" y1="76.198" y2="70.21" fill="none" stroke="#1f212b" stroke-linecap="round" stroke-linejoin="round"/><line x1="33.735" x2="37.452" y1="80.991" y2="73.907" fill="none" stroke="#1f212b" stroke-linecap="round" stroke-linejoin="round"/><line x1="41.624" x2="43.538" y1="83.983" y2="76.215" fill="none" stroke="#1f212b" stroke-linecap="round" stroke-linejoin="round"/><line x1="50" x2="50" y1="85" y2="77" fill="none" stroke="#1f212b" stroke-linecap="round" stroke-linejoin="round"/><line x1="58.376" x2="56.462" y1="83.983" y2="76.215" fill="none" stroke="#1f212b" stroke-linecap="round" stroke-linejoin="round"/><line x1="66.265" x2="62.548" y1="80.991" y2="73.907" fill="none" stroke="#1f212b" stroke-linecap="round" stroke-linejoin="round"/><line x1="73.209" x2="67.904" y1="76.198" y2="70.21" fill="none" stroke="#1f212b" stroke-linecap="round" stroke-linejoin="round"/><line x1="78.804" x2="72.221" y1="69.882" y2="65.338" fill="none" stroke="#1f212b" stroke-linecap="round" stroke-linejoin="round"/><line x1="82.726" x2="75.245" y1="62.411" y2="59.574" fill="none" stroke="#1f212b" stroke-linecap="round" stroke-linejoin="round"/><line x1="84.745" x2="76.803" y1="54.219" y2="53.254" fill="none" stroke="#1f212b" stroke-linecap="round" stroke-linejoin="round"/><line x1="84.745" x2="76.803" y1="45.781" y2="46.746" fill="none" stroke="#1f212b" stroke-linecap="round" stroke-linejoin="round"/><line x1="82.726" x2="75.245" y1="37.589" y2="40.426" fill="none" stroke="#1f212b" stroke-linecap="round" stroke-linejoin="round"/><line x1="78.804" x2="72.221" y1="30.118" y2="34.662" fill="none" stroke="#1f212b" stroke-linecap="round" stroke-linejoin="round"/><line x1="73.209" x2="67.904" y1="23.802" y2="29.79" fill="none" stroke="#1f212b" stroke-linecap="round" stroke-linejoin="round"/><line x1="66.265" x2="62.548" y1="19.009" y2="26.093" fill="none" stroke="#1f212b" stroke-linecap="round" stroke-linejoin="round"/><line x1="58.376" x2="56.462" y1="16.017" y2="23.785" fill="none" stroke="#1f212b" stroke-linecap="round" stroke-linejoin="round"/></svg>