<?xml version="1.0" encoding="utf-8"?>
<!-- Generator: Adobe Illustrator 24.1.1, SVG Export Plug-In . SVG Version: 6.00 Build 0)  -->
<svg version="1.1" id="Layer_1" xmlns="http://www.w3.org/2000/svg" xmlns:xlink="http://www.w3.org/1999/xlink" x="0px" y="0px"
	 viewBox="0 0 512 512" style="enable-background:new 0 0 512 512;" xml:space="preserve">
<style type="text/css">
	.st0{fill:#444444;}
</style>
<g>
	<path class="st0" d="M7.5,12.7c-12.8,12.8-9.6,27.6,12.8,61c11.6,17.3,25,44.3,30.2,59.7c5.1,16,15.4,37.9,22.5,48.8
		c12.8,18,12.8,21.8,4.5,54.6c-5.1,20.5-7.1,46.2-4.5,62.3c3.8,27,25.7,66.1,39.1,70.6c11.6,3.8,28.2-16.7,28.9-35.3
		c0-16,0.6-16.7,7.7-5.1c12.2,19.9,50.7,62.2,53.9,59c1.3-1.3-7.1-18-19.3-36.6c-11.6-19.2-25-44.3-30.1-55.9
		c-7.1-19.2-9.6-20.5-18-11.6c-5.1,5.1-11.6,19.9-13.5,33.4c-5.1,30.8-16.7,34.7-25.7,8.4c-9-26.3-9-71.3,0-102.1
		c6.4-21.2,5.8-26.9-5.1-43c-7.1-9.6-18-32.7-23.8-51.3c-5.8-18-19.2-44.9-30.1-59.1c-25-35.3-25-48.1,1.3-43
		c10.9,1.9,27.6,9.6,37.9,16.7c9.6,7.1,26.3,12.8,36.6,12.8c30.8,0,84.7,30.2,123.9,69.3c30.2,30.2,45.6,54.6,78.3,120.7
		c38.5,78.3,41.7,82.8,65.5,90.5c28.2,9.6,87.3,45.6,87.3,53.3c0,2.6-14.8,6.4-32.7,7.7c-48.1,5.1-52.6,14.1-21.2,42.4
		c14.8,12.8,42.4,32.7,62.3,43.7l35.9,20.5l-16.7-21.2c-9.6-11.6-29.5-29.5-44.9-39.2c-15.4-9.6-27.6-19.9-27.6-22.5
		s10.9-7.1,24.4-9c35.9-6.4,46.2-9.6,46.2-16c0-9.6-64.8-58.4-95.6-71.9c-26.3-12.2-29.5-17.3-63.5-87.3
		c-30.2-64.2-42.4-82.2-80.9-120.7c-49.4-49.4-83.4-70.6-127.1-77C111.5,37.7,91,30,82,23.6C60.8,7.5,17.8,1.7,7.5,12.7L7.5,12.7z"
		/>
</g>
</svg>
