<?xml version="1.0" encoding="utf-8"?>
<!-- Generator: Adobe Illustrator 21.0.0, SVG Export Plug-In . SVG Version: 6.00 Build 0)  -->
<svg version="1.1" id="Layer_1" xmlns="http://www.w3.org/2000/svg" xmlns:xlink="http://www.w3.org/1999/xlink" x="0px" y="0px"
	 viewBox="0 0 512 512" style="enable-background:new 0 0 512 512;" xml:space="preserve">
<g>
	<path d="M255.9,0c-7.2,0-14.4,1.8-20.6,5.3L40.2,118c-12.6,7.3-20.5,21.1-20.5,35.7V358c0,14.8,7.9,28.4,20.5,35.7l51.2,29.5
		c24.8,12.2,33.7,12.2,44.9,12.2c36.8,0,57.9-22.3,57.9-60.8V163.7c0-3.2-2.5-5.7-5.7-5.7h-24.6c-3.3,0-5.7,2.6-5.7,5.7v210.7
		c0,17.3-17.9,34.3-46.8,19.9l-53.6-30.9c-2-1-3.2-3.1-3.2-5.3V153.8c0-2.4,1.2-4.4,3.2-5.5L252.8,35.7c1.8-1.2,4.1-1.2,6.1,0
		l195.2,112.6c2,1.2,3.2,3.2,3.2,5.3V358c0,2.2-1.2,4.3-3,5.3L259,476.2h-6.1l-50.2-29.7l-4.7-0.4c-14,7.9-16.5,8.9-29.5,13.4
		c-3.2,1-8.1,3,1.8,8.5l65.2,38.6c6.3,3.5,13.4,5.5,20.5,5.5c7.3,0,14.4-2,20.7-5.5l195.4-112.8c12.6-7.3,20.5-20.9,20.5-35.7V153.8
		c0-14.8-7.9-28.4-20.5-35.7L276.5,5.3C270.3,1.8,263.1,0,255.9,0z M308.4,157.7c-55.7,0-89,23.6-89,63c0,42.7,33,54.5,86.6,59.8
		c64,6.3,68.9,15.8,68.9,28.4c0,21.7-17.5,30.9-58.7,30.9c-51.8,0-63.2-13-67-38.6c-0.4-2.8-2.7-4.7-5.5-4.7h-25.4
		c-3.2,0-5.5,2.6-5.5,5.5c0,32.9,17.9,72,103.4,72c61.8,0,97.3-24.4,97.3-66.9c0-42.1-28.6-53.4-88.4-61.5c-60.8-7.9-67-12-67-26.2
		c0-11.8,5.3-27.3,50.2-27.3c40,0,54.9,8.6,61,35.6c0.6,2.6,2.7,4.5,5.5,4.5h25.4l4.1-2l1.4-4.3C401.9,179.5,371,157.7,308.4,157.7z
		"/>
</g>
</svg>
