<?xml version="1.0" encoding="utf-8"?>
<!-- Generator: Adobe Illustrator 19.0.0, SVG Export Plug-In . SVG Version: 6.00 Build 0)  -->
<svg version="1.1" id="Layer_1" xmlns="http://www.w3.org/2000/svg" xmlns:xlink="http://www.w3.org/1999/xlink" x="0px" y="0px"
	 viewBox="0 0 500 500" style="enable-background:new 0 0 500 500;" xml:space="preserve">
<style type="text/css">
	.st0{fill:url(#XMLID_23_);}
	.st1{fill:#FFFFFF;}
</style>
<linearGradient id="XMLID_23_" gradientUnits="userSpaceOnUse" x1="250" y1="425" x2="250" y2="75">
	<stop  offset="0" style="stop-color:#0046AE"/>
	<stop  offset="1" style="stop-color:#2E79FD"/>
</linearGradient>
<rect id="XMLID_2_" x="75" y="75" class="st0" width="350" height="350"/>
<g id="XMLID_1_">
	<path id="path12" class="st1" d="M183.9,150.8c9.1,0,17.5,0.7,25.2,2.8c7.7,1.4,14,4.2,19.6,7.7c5.6,3.5,9.8,8.4,12.6,14.7
		c2.8,6.3,4.2,14,4.2,22.4c0,9.8-2.1,18.2-7,24.5c-4.2,6.3-11.2,11.9-19.6,16.1c11.9,3.5,21,9.8,26.7,18.2
		c5.6,8.4,9.1,18.9,9.1,30.9c0,9.8-2.1,18.2-5.6,25.2c-3.5,7-9.1,13.3-15.4,17.5c-6.3,4.2-14,7.7-22.4,9.8
		c-8.4,2.1-16.8,3.5-25.2,3.5h-94V150.8H183.9z M178.3,229.3c7.7,0,14-2.1,18.9-5.6c4.9-3.5,7-9.8,7-17.5c0-4.2-0.7-8.4-2.1-11.2
		c-1.4-2.8-3.5-4.9-6.3-7c-2.8-1.4-5.6-2.8-9.1-3.5c-3.5-0.7-7-0.7-11.2-0.7h-40.7v45.6H178.3z M180.4,312.1c4.2,0,8.4-0.7,11.9-1.4
		c3.5-0.7,7-2.1,9.8-4.2c2.8-2.1,4.9-4.2,7-7.7c1.4-3.5,2.8-7.7,2.8-12.6c0-9.8-2.8-16.8-8.4-21.7c-5.6-4.2-13.3-6.3-22.4-6.3h-46.3
		v54H180.4z"/>
	<path id="path14" class="st1" d="M315.8,311.4c5.6,5.6,14,8.4,25.2,8.4c7.7,0,14.7-2.1,20.3-5.6c5.6-4.2,9.1-8.4,10.5-12.6h34.4
		c-5.6,16.8-14,28.8-25.2,36.5c-11.2,7-24.5,11.2-40.7,11.2c-11.2,0-21-2.1-30.2-5.6c-9.1-3.5-16.1-8.4-22.4-15.4
		c-6.3-6.3-11.2-14-14-23.1c-3.5-9.1-4.9-18.9-4.9-30.2c0-10.5,1.4-20.3,4.9-29.5c3.5-9.1,8.4-16.8,14.7-23.8
		c6.3-6.3,14-11.9,22.4-15.4c9.1-3.5,18.2-5.6,29.5-5.6c11.9,0,22.4,2.1,31.6,7c9.1,4.9,16.1,10.5,21.7,18.9
		c5.6,7.7,9.8,16.8,12.6,26.7c1.4,9.8,2.1,19.6,1.4,30.9H306C306,295.2,310.2,305.8,315.8,311.4z M360,237.7
		c-4.9-4.9-12.6-7.7-21.7-7.7c-6.3,0-11.2,1.4-15.4,3.5c-4.2,2.1-7,4.9-9.8,7.7c-2.8,2.8-4.2,6.3-4.9,9.8c-0.7,3.5-1.4,6.3-1.4,9.1
		h63.1C368.4,249.6,364.9,242.6,360,237.7z"/>
	<rect id="rect24" x="298.3" y="164.1" class="st1" width="78.6" height="18.9"/>
</g>
</svg>
