<svg xmlns="http://www.w3.org/2000/svg"  viewBox="0 0 64 64" width="64px" height="64px"><linearGradient id="1LIav8kz_U~vs~LYO_y2Za" x1="31.127" x2="31.778" y1="8.176" y2="56.569" gradientUnits="userSpaceOnUse"><stop offset="0" stop-color="#6dc7ff"/><stop offset="1" stop-color="#e6abff"/></linearGradient><path fill="url(#1LIav8kz_U~vs~LYO_y2Za)" d="M59.01,14.36c0.02-0.49-0.05-1.44-0.68-2.39c-0.6-0.89-1.43-1.31-1.99-1.55 c-0.82-0.35-2.55-0.84-5.16-1.59c-2.06-0.6-4.6-1.33-7.44-2.2c-0.23-0.11-0.47-0.17-0.71-0.22h-0.02c-0.93-0.18-1.91,0.05-2.68,0.7 c-3.65,3.11-13,11.09-21.23,18.15c-1.62-1.18-3.07-2.24-4.3-3.14c-2.67-1.95-4.31-3.14-4.52-3.29c-0.44-0.31-0.91-0.48-1.4-0.49 c-0.99-0.01-1.66,0.58-1.82,0.75l-2.7,2.72c-0.19,0.24-0.65,0.88-0.61,1.79c0,0.15,0.06,0.92,0.69,1.68 c0.3,0.36,3.12,2.84,7.22,6.39c-6.77,5.85-7.08,6.22-7.22,6.39c-0.63,0.76-0.69,1.53-0.69,1.67c-0.04,0.92,0.42,1.56,0.67,1.86 l2.62,2.63C7.21,44.41,7.85,45,8.82,45h0.06c0.48-0.01,0.95-0.18,1.4-0.49c0.19-0.14,1.52-1.11,3.72-2.71l5.1-3.72 C26.07,44.06,34.2,51,40.33,56.23c0.6,0.51,1.35,0.77,2.09,0.77c0.09,0,0.18-0.02,0.27-0.03h0.04c0.05,0,0.11-0.01,0.16-0.02 c0.29-0.04,0.56-0.12,0.82-0.23c2.85-0.88,5.4-1.61,7.47-2.21c2.61-0.75,4.34-1.24,5.16-1.59c0.32-0.14,1.31-0.56,1.99-1.56 c0.63-0.94,0.7-1.9,0.68-2.35L59,30.07c0-0.03,0.01-0.05,0.01-0.07V14.36z M44,43.38c-5.75-4.18-11.26-8.18-16.1-11.71 c4.84-3.53,10.35-7.54,16.1-11.71V43.38z"/><linearGradient id="1LIav8kz_U~vs~LYO_y2Zb" x1="31.38" x2="31.38" y1="6.351" y2="57" gradientUnits="userSpaceOnUse"><stop offset="0" stop-color="#1a6dff"/><stop offset="1" stop-color="#c822ff"/></linearGradient><path fill="url(#1LIav8kz_U~vs~LYO_y2Zb)" d="M59.01,14.36c0.02-0.49-0.05-1.44-0.68-2.39c-0.6-0.89-1.43-1.31-1.99-1.55 c-0.82-0.35-2.55-0.84-5.16-1.59c-2.06-0.6-4.6-1.33-7.44-2.2c-0.23-0.11-0.47-0.17-0.71-0.22h-0.02c-0.93-0.18-1.91,0.05-2.68,0.7 c-3.65,3.11-13,11.09-21.23,18.15c-1.62-1.18-3.07-2.24-4.3-3.14c-2.67-1.95-4.31-3.14-4.52-3.29c-0.44-0.31-0.91-0.48-1.4-0.49 c-0.99-0.01-1.66,0.58-1.82,0.75l-2.7,2.72c-0.19,0.24-0.65,0.88-0.61,1.79c0,0.15,0.06,0.92,0.69,1.68 c0.3,0.36,3.12,2.84,7.22,6.39c-6.77,5.85-7.08,6.22-7.22,6.39c-0.63,0.76-0.69,1.53-0.69,1.67c-0.04,0.92,0.42,1.56,0.67,1.86 l2.62,2.63C7.21,44.41,7.85,45,8.82,45h0.06c0.48-0.01,0.95-0.18,1.4-0.49c0.19-0.14,1.52-1.11,3.72-2.71l5.1-3.72 C26.07,44.06,34.2,51,40.33,56.23c0.6,0.51,1.35,0.77,2.09,0.77c0.09,0,0.18-0.02,0.27-0.03h0.04c0.05,0,0.11-0.01,0.16-0.02 c0.29-0.04,0.56-0.12,0.82-0.23c2.85-0.88,5.4-1.61,7.47-2.21c2.61-0.75,4.34-1.24,5.16-1.59c0.32-0.14,1.31-0.56,1.99-1.56 c0.63-0.94,0.7-1.9,0.68-2.35L59,30.07c0-0.03,0.01-0.05,0.01-0.07V14.36z M12.82,40.18c-2.19,1.6-3.51,2.56-3.7,2.7 C9.08,42.91,8.95,43,8.83,43c-0.14,0-0.33-0.14-0.35-0.17l-2.59-2.59c-0.02-0.03-0.15-0.2-0.14-0.41c0-0.01,0.02-0.25,0.22-0.48 c0.17-0.2,1.37-1.3,7.22-6.36c1.36,1.17,2.82,2.43,4.35,3.75L12.82,40.18z M44,51.34c0,0.77,0,2.58-0.71,3.29 c-0.1,0.1-0.21,0.17-0.32,0.23c-0.12,0.03-0.23,0.07-0.35,0.1c-0.35,0.06-0.71-0.01-0.99-0.25C20.38,36.59,6.72,24.82,5.98,24 c-0.2-0.24-0.23-0.47-0.23-0.47c-0.01-0.25,0.1-0.38,0.09-0.37l2.66-2.67c0-0.01,0.11-0.15,0.33-0.15c0.08,0,0.18,0.04,0.29,0.12 c0.21,0.15,1.84,1.34,4.5,3.28C19.76,28.22,31.4,36.7,44,45.85V51.34z M44,43.38c-5.75-4.18-11.26-8.18-16.1-11.71 c4.84-3.53,10.35-7.54,16.1-11.71V43.38z M44,17.49c-6.38,4.63-12.5,9.09-17.8,12.94c-1.95-1.42-3.77-2.74-5.44-3.96 C28.9,19.49,38.03,11.7,41.63,8.63c0.28-0.24,0.64-0.31,0.99-0.25c0.12,0.03,0.23,0.07,0.35,0.1c0.11,0.06,0.23,0.13,0.32,0.23 C44,9.41,44,11.23,44,12V17.49z M57.01,29.93c0,0.03-0.01,0.05-0.01,0.07l0.01,19.04c0.01,0.24-0.02,0.73-0.35,1.21 c-0.3,0.45-0.74,0.68-1.1,0.83c-0.71,0.3-2.57,0.83-4.93,1.51c-1.42,0.41-3.08,0.88-4.88,1.42C45.99,53,46,51.97,46,51.34v-5.99 c0-0.01,0-0.02,0-0.02V12c0-0.64-0.01-1.67-0.25-2.68c1.8,0.54,3.46,1.02,4.88,1.43c2.36,0.68,4.22,1.21,4.93,1.51 c0.23,0.1,0.77,0.33,1.1,0.83c0.33,0.48,0.36,0.96,0.35,1.24V29.93z"/></svg>