<svg xmlns="http://www.w3.org/2000/svg"  viewBox="0 0 64 64" width="64px" height="64px"><linearGradient id="SVGID_1_" x1="32" x2="32" y1="5.213" y2="56.025" gradientUnits="userSpaceOnUse"><stop offset="0" stop-color="#1a6dff"/><stop offset="1" stop-color="#c822ff"/></linearGradient><path fill="url(#SVGID_1_)" d="M32,6c-0.1,0-0.1,0-0.2,0c-2,0-4,0.3-5.9,0.7c-0.1,0-0.2,0-0.3,0.1c-2,0.5-3.9,1.2-5.6,2.2c0,0-0.1,0-0.1,0.1	c-1.8,0.9-3.4,2.1-4.9,3.4c-0.1,0.1-0.2,0.2-0.3,0.3c-1.4,1.3-2.7,2.7-3.8,4.3c-0.1,0.1-0.2,0.3-0.3,0.4c-1.1,1.6-2,3.3-2.7,5.2	c-0.1,0.1-0.1,0.2-0.1,0.3c-0.7,1.8-1.2,3.8-1.4,5.7c0,0.1-0.1,0.3-0.1,0.4C6.1,30,6,31,6,32c0,1,0.1,1.9,0.2,2.9	c0,0.2,0,0.3,0.1,0.5c0.3,2,0.8,4,1.5,5.8c0,0,0,0,0,0.1c0.7,1.9,1.6,3.7,2.8,5.3c0.1,0.2,0.2,0.3,0.3,0.4c1.1,1.6,2.4,3,3.8,4.3	c0.1,0.2,0.2,0.3,0.4,0.3c1.5,1.3,3.1,2.4,4.9,3.3c0,0,0.1,0,0.1,0.1c1.8,0.9,3.7,1.7,5.7,2.2c0,0,0.1,0,0.1,0	c1.9,0.5,3.9,0.7,6,0.7c0.1,0,0.2,0,0.4,0c2.1,0,4-0.3,6-0.7c0,0,0.1,0,0.1,0c2-0.5,3.9-1.2,5.7-2.2c0,0,0.1,0,0.1-0.1	c1.8-0.9,3.4-2.1,4.9-3.4c0.2-0.1,0.3-0.2,0.4-0.3c1.4-1.3,2.7-2.7,3.8-4.3c0.1-0.1,0.2-0.3,0.3-0.4c1.1-1.6,2-3.4,2.7-5.3	c0,0,0-0.1,0-0.1c0.7-1.8,1.2-3.8,1.4-5.8c0.1-0.2,0.1-0.3,0.1-0.5C57.9,33.9,58,33,58,32c0-1-0.1-2-0.2-2.9c0-0.1,0-0.3,0-0.4	c-0.3-2-0.7-3.9-1.4-5.8c0-0.1-0.1-0.2-0.1-0.3c-0.7-1.8-1.6-3.6-2.7-5.2c-0.1-0.2-0.2-0.3-0.3-0.4c-1.1-1.6-2.4-3-3.8-4.3	c-0.1-0.1-0.2-0.2-0.3-0.3c-1.5-1.3-3.1-2.4-4.9-3.4C44.1,9,44,9,44,9c-1.8-0.9-3.7-1.7-5.7-2.2c-0.1,0-0.2-0.1-0.3-0.1	c-1.9-0.5-3.9-0.7-5.9-0.7C32.1,6,32,6,32,6z M31.1,7.9v3.7c-1,0-2.1,0.2-3,0.4l-0.9-3.6C28.4,8.1,29.7,8,31.1,7.9z M32.9,7.9	c1.3,0.1,2.7,0.2,3.9,0.5L36,12c-1-0.2-2-0.3-3-0.4V7.9z M25.3,8.8l0.9,3.6c-1,0.3-1.9,0.7-2.9,1.1l-1.7-3.3	C22.8,9.7,24.1,9.2,25.3,8.8z M38.7,8.8c1.3,0.4,2.5,0.8,3.7,1.4l-1.7,3.3c-0.9-0.4-1.9-0.8-2.9-1.1L38.7,8.8z M20,11.1l1.7,3.3	c-0.9,0.5-1.7,1.1-2.5,1.7l-2.5-2.8C17.7,12.5,18.8,11.8,20,11.1z M44,11.1c1.2,0.7,2.2,1.4,3.3,2.3l-2.5,2.8	c-0.8-0.6-1.6-1.2-2.5-1.7L44,11.1z M31,13.5C31.1,13.5,31.1,13.5,31,13.5l0,3.8c-1.6,0.1-3.2,0.4-4.7,1l-1.6-3.4	c0.9-0.4,1.8-0.6,2.7-0.9c0.1,0,0.2,0,0.2-0.1C28.8,13.7,29.9,13.5,31,13.5z M32.9,13.5c1.2,0.1,2.3,0.2,3.4,0.5	c0.1,0,0.2,0,0.2,0.1c0.9,0.2,1.8,0.5,2.7,0.9l-1.6,3.4c-1.4-0.6-3-0.9-4.7-1V13.5z M15.3,14.6l2.5,2.8c-0.6,0.6-1.1,1.1-1.6,1.8	c-0.1,0.1-0.2,0.2-0.2,0.3c-0.1,0.1-0.1,0.1-0.2,0.2l-3.1-2.1C13.5,16.5,14.4,15.5,15.3,14.6z M48.7,14.6c1,0.9,1.8,1.9,2.6,3	l-3.1,2.1c-0.1-0.1-0.1-0.1-0.2-0.2c0,0,0,0,0,0c-0.1-0.1-0.1-0.2-0.3-0.3c-0.5-0.6-1-1.2-1.6-1.8L48.7,14.6z M23.1,15.7l1.6,3.4	c-1.4,0.8-2.7,1.8-3.7,3l-2.9-2.3c0.5-0.5,1-1,1.5-1.5c0.1-0.1,0.2-0.1,0.2-0.2C20.8,17.1,21.9,16.4,23.1,15.7z M40.9,15.7	c1.2,0.6,2.3,1.4,3.3,2.3c0.1,0.1,0.1,0.2,0.2,0.2c0.5,0.5,1,1,1.5,1.5L43,22.1c-1.1-1.2-2.3-2.2-3.7-3L40.9,15.7z M31.9,19	c0.1,0,0.1,0,0.2,0c7.1,0,12.9,5.8,12.9,13c0,7.2-5.8,12.9-12.9,13c-0.1,0-0.1,0-0.2,0c-7.1,0-12.9-5.8-12.9-13	C19,24.8,24.8,19.1,31.9,19z M11.6,19.1l3.1,2.1c-0.5,0.9-1,1.8-1.4,2.7l-3.5-1.3C10.3,21.4,10.9,20.2,11.6,19.1z M52.4,19.1	c0.7,1.1,1.3,2.3,1.9,3.5l-3.5,1.3c-0.4-0.9-0.9-1.9-1.4-2.7L52.4,19.1z M17,21.2l2.9,2.3c-0.9,1.3-1.6,2.8-2,4.3L14.2,27	c0.5-1.9,1.4-3.7,2.5-5.4c0.1-0.1,0.1-0.2,0.2-0.2C16.9,21.3,16.9,21.2,17,21.2z M47,21.2c0,0.1,0.1,0.1,0.1,0.2	c0,0.1,0.1,0.2,0.2,0.2c1.1,1.6,1.9,3.4,2.5,5.4l-3.7,0.8c-0.5-1.6-1.1-3-2-4.3L47,21.2z M9.1,24.3l3.5,1.3	c-0.2,0.6-0.3,1.2-0.5,1.7c0,0,0,0.1,0,0.1c-0.1,0.4-0.2,0.7-0.2,1.1l-3.7-0.4C8.4,26.9,8.7,25.6,9.1,24.3z M54.9,24.3	c0.4,1.2,0.7,2.5,0.9,3.9l-3.7,0.4c-0.1-0.4-0.1-0.7-0.2-1.1c0,0,0-0.1,0-0.1c-0.1-0.6-0.3-1.2-0.5-1.8L54.9,24.3z M13.7,28.8	l3.7,0.8c-0.1,0.8-0.2,1.6-0.2,2.4c0,0.8,0.1,1.6,0.2,2.4l-3.7,0.8c0-0.3-0.1-0.6-0.1-0.9c0-0.1,0-0.2,0-0.3	c-0.1-0.7-0.1-1.4-0.1-2.1c0-0.7,0-1.3,0.1-2c0.1-0.1,0.1-0.3,0.1-0.5C13.7,29.3,13.7,29,13.7,28.8z M50.3,28.8	c0,0.3,0.1,0.5,0.1,0.8c0,0.2,0,0.3,0.1,0.5c0.1,0.7,0.1,1.3,0.1,2c0,0.7,0,1.4-0.1,2.1c0,0.1,0,0.2,0,0.3c0,0.3-0.1,0.6-0.1,0.8	l-3.7-0.8c0.1-0.8,0.2-1.6,0.2-2.4c0-0.8-0.1-1.6-0.2-2.4L50.3,28.8z M8,30l3.7,0.4c0,0.5-0.1,1-0.1,1.5c0,0.5,0,1,0.1,1.5L8,34	c-0.1-0.7-0.1-1.3-0.1-2S7.9,30.7,8,30z M56,30c0.1,0.7,0.1,1.3,0.1,2s0,1.3-0.1,2l-3.7-0.4c0-0.5,0.1-1,0.1-1.5c0-0.5,0-1-0.1-1.5	L56,30z M11.9,35.4c0.1,0.4,0.1,0.7,0.2,1.1c0,0,0,0.1,0,0.1c0.1,0.6,0.3,1.2,0.5,1.8l-3.5,1.3c-0.4-1.2-0.7-2.5-0.9-3.9L11.9,35.4z M52.1,35.4l3.7,0.4c-0.2,1.3-0.5,2.6-0.9,3.9l-3.5-1.3c0.2-0.6,0.4-1.2,0.5-1.8c0,0,0-0.1,0-0.1C52,36.1,52.1,35.7,52.1,35.4z M17.8,36.2c0.5,1.6,1.1,3,2,4.3L17,42.8c0-0.1-0.1-0.1-0.1-0.2c0-0.1-0.1-0.2-0.2-0.2c-0.8-1.2-1.4-2.4-1.9-3.7c0,0,0-0.1,0-0.1	c-0.2-0.5-0.4-1-0.5-1.5L17.8,36.2z M46.2,36.2l3.7,0.8c-0.1,0.5-0.3,1-0.5,1.5c0,0,0,0.1,0,0.1c-0.5,1.3-1.1,2.6-1.9,3.8	c-0.1,0.1-0.1,0.2-0.2,0.2c0,0.1-0.1,0.1-0.1,0.2l-2.9-2.3C45,39.2,45.7,37.7,46.2,36.2z M13.3,40.1c0.4,0.9,0.9,1.9,1.4,2.7	l-3.1,2.1c-0.7-1.1-1.3-2.3-1.9-3.5L13.3,40.1z M50.7,40.1l3.5,1.3c-0.5,1.2-1.1,2.4-1.9,3.5l-3.1-2.1C49.8,41.9,50.3,41,50.7,40.1z M21,41.9c1.1,1.2,2.3,2.2,3.7,3l-1.6,3.4c-1.9-1-3.6-2.4-5-4L21,41.9z M43,41.9l2.9,2.3c-1.4,1.6-3.1,3-5,4l-1.6-3.4	C40.6,44.1,41.9,43.1,43,41.9z M15.8,44.3c0.1,0.1,0.1,0.1,0.2,0.2c0.1,0.1,0.1,0.2,0.3,0.3c0.5,0.6,1,1.2,1.6,1.8l-2.5,2.8	c-1-0.9-1.8-1.9-2.6-3L15.8,44.3z M48.2,44.3l3.1,2.1c-0.8,1.1-1.7,2.1-2.6,3l-2.5-2.8c0.6-0.6,1.1-1.1,1.6-1.8	c0.1-0.1,0.2-0.2,0.2-0.3C48.1,44.5,48.2,44.4,48.2,44.3z M26.4,45.7c1.4,0.6,3,0.9,4.7,1v3.8c-2.2-0.1-4.3-0.6-6.3-1.4L26.4,45.7z M37.6,45.7l1.6,3.4c-1.9,0.8-4.1,1.3-6.3,1.4v-3.8C34.6,46.6,36.1,46.3,37.6,45.7z M19.2,47.9c0.8,0.6,1.6,1.2,2.5,1.7L20,52.9	c-1.2-0.7-2.2-1.4-3.3-2.3L19.2,47.9z M44.8,47.9l2.5,2.8c-1,0.8-2.1,1.6-3.3,2.3l-1.7-3.3C43.2,49.1,44,48.5,44.8,47.9z M23.4,50.5	c0.9,0.4,1.9,0.8,2.9,1.1l-0.9,3.6c-1.3-0.4-2.5-0.8-3.7-1.4L23.4,50.5z M40.6,50.5l1.7,3.3c-1.2,0.6-2.4,1-3.7,1.4l-0.9-3.6	C38.8,51.3,39.7,50.9,40.6,50.5z M28,52c1,0.2,2,0.3,3,0.4v3.7c-1.3-0.1-2.7-0.2-3.9-0.5L28,52z M36,52l0.9,3.6	c-1.3,0.3-2.6,0.4-3.9,0.5v-3.7C34,52.3,35,52.2,36,52z"/><linearGradient id="SVGID_2_" x1="36.5" x2="36.5" y1="22.383" y2="38.857" gradientUnits="userSpaceOnUse"><stop offset="0" stop-color="#6dc7ff"/><stop offset="1" stop-color="#e6abff"/></linearGradient><path fill="url(#SVGID_2_)" d="M32,23v18c5,0,9-4,9-9C41,27,37,23,32,23z"/></svg>
