<svg xmlns="http://www.w3.org/2000/svg"  viewBox="0 0 64 64" width="64px" height="64px"><linearGradient id="UkOGjJSH0tJ0foaMEsaA_a" x1="22" x2="22" y1="15" y2="47" gradientUnits="userSpaceOnUse"><stop offset="0" stop-color="#6dc7ff"/><stop offset="1" stop-color="#e6abff"/></linearGradient><path fill="url(#UkOGjJSH0tJ0foaMEsaA_a)" d="M27,47H17c-1.105,0-2-0.895-2-2V17c0-1.105,0.895-2,2-2h10c1.105,0,2,0.895,2,2v28	C29,46.105,28.105,47,27,47z"/><linearGradient id="UkOGjJSH0tJ0foaMEsaA_b" x1="42" x2="42" y1="15" y2="33" gradientUnits="userSpaceOnUse"><stop offset="0" stop-color="#6dc7ff"/><stop offset="1" stop-color="#e6abff"/></linearGradient><path fill="url(#UkOGjJSH0tJ0foaMEsaA_b)" d="M47,33H37c-1.105,0-2-0.895-2-2V17c0-1.105,0.895-2,2-2h10c1.105,0,2,0.895,2,2v14	C49,32.105,48.105,33,47,33z"/><linearGradient id="UkOGjJSH0tJ0foaMEsaA_c" x1="32" x2="32" y1="7.511" y2="56.362" gradientUnits="userSpaceOnUse"><stop offset="0" stop-color="#1a6dff"/><stop offset="1" stop-color="#c822ff"/></linearGradient><path fill="url(#UkOGjJSH0tJ0foaMEsaA_c)" d="M51,56H13c-2.757,0-5-2.243-5-5V13c0-2.757,2.243-5,5-5h38c2.757,0,5,2.243,5,5v38	C56,53.757,53.757,56,51,56z M13,10c-1.654,0-3,1.346-3,3v38c0,1.654,1.346,3,3,3h38c1.654,0,3-1.346,3-3V13c0-1.654-1.346-3-3-3H13	z M27,48H17c-1.654,0-3-1.346-3-3V17c0-1.654,1.346-3,3-3h10c1.654,0,3,1.346,3,3v28C30,46.654,28.654,48,27,48z M17,16	c-0.551,0-1,0.449-1,1v28c0,0.552,0.449,1,1,1h10c0.551,0,1-0.448,1-1V17c0-0.551-0.449-1-1-1H17z M47,34H37c-1.654,0-3-1.346-3-3	V17c0-1.654,1.346-3,3-3h10c1.654,0,3,1.346,3,3v14C50,32.654,48.654,34,47,34z M37,16c-0.552,0-1,0.449-1,1v14c0,0.551,0.448,1,1,1	h10c0.552,0,1-0.449,1-1V17c0-0.551-0.448-1-1-1H37z"/></svg>