<svg xmlns="http://www.w3.org/2000/svg"  viewBox="0 0 64 64" width="64px" height="64px"><linearGradient id="~Bcl18kQ7eI8RDPJp75vPa" x1="26" x2="26" y1="9.009" y2="15.033" gradientUnits="userSpaceOnUse"><stop offset="0" stop-color="#8ac3fa"/><stop offset="1" stop-color="#d3a6f9"/></linearGradient><path fill="url(#~Bcl18kQ7eI8RDPJp75vPa)" d="M26,7c2.761,0,5,2.239,5,5c0,1.494,0,5,0,5s-3.733,0-5,0c-2.761,0-5-2.239-5-5S23.239,7,26,7 z"/><linearGradient id="~Bcl18kQ7eI8RDPJp75vPb" x1="12" x2="12" y1="35.078" y2="41.102" gradientUnits="userSpaceOnUse"><stop offset="0" stop-color="#8ac3fa"/><stop offset="1" stop-color="#d3a6f9"/></linearGradient><path fill="url(#~Bcl18kQ7eI8RDPJp75vPb)" d="M7,38c0-2.762,2.239-5,5-5c1.494,0,5,0,5,0s0,3.732,0,5c0,2.762-2.239,5-5,5S7,40.762,7,38z"/><linearGradient id="~Bcl18kQ7eI8RDPJp75vPc" x1="38" x2="38" y1="49.195" y2="55.03" gradientUnits="userSpaceOnUse"><stop offset="0" stop-color="#8ac3fa"/><stop offset="1" stop-color="#d3a6f9"/></linearGradient><path fill="url(#~Bcl18kQ7eI8RDPJp75vPc)" d="M38,57c-2.761,0-5-2.239-5-5c0-1.494,0-5,0-5s3.733,0,5,0c2.761,0,5,2.239,5,5 S40.761,57,38,57z"/><linearGradient id="~Bcl18kQ7eI8RDPJp75vPd" x1="52" x2="52" y1="22.938" y2="29.056" gradientUnits="userSpaceOnUse"><stop offset="0" stop-color="#8ac3fa"/><stop offset="1" stop-color="#d3a6f9"/></linearGradient><path fill="url(#~Bcl18kQ7eI8RDPJp75vPd)" d="M57,26c0,2.762-2.239,5-5,5c-1.494,0-5,0-5,0s0-3.732,0-5c0-2.762,2.239-5,5-5 S57,23.238,57,26z"/><linearGradient id="~Bcl18kQ7eI8RDPJp75vPe" x1="19" x2="19" y1="7.25" y2="57.516" gradientUnits="userSpaceOnUse"><stop offset="0" stop-color="#1a6dff"/><stop offset="1" stop-color="#c822ff"/></linearGradient><path fill="url(#~Bcl18kQ7eI8RDPJp75vPe)" d="M25.947,22C27.631,22,29,23.346,29,25s-1.369,3-3.053,3H12.053C10.369,28,9,26.654,9,25 s1.369-3,3.053-3H25.947 M25.947,20c-1.59,0-12.311,0-13.895,0C9.262,20,7,22.239,7,25s2.262,5,5.053,5c1.584,0,12.304,0,13.895,0 C28.738,30,31,27.761,31,25S28.738,20,25.947,20L25.947,20z"/><linearGradient id="~Bcl18kQ7eI8RDPJp75vPf" x1="26" x2="26" y1="7.25" y2="57.516" gradientUnits="userSpaceOnUse"><stop offset="0" stop-color="#1a6dff"/><stop offset="1" stop-color="#c822ff"/></linearGradient><path fill="url(#~Bcl18kQ7eI8RDPJp75vPf)" d="M26,9c1.654,0,3,1.346,3,3v3h-3c-1.654,0-3-1.346-3-3S24.346,9,26,9 M26,7 c-2.761,0-5,2.239-5,5s2.239,5,5,5c1.267,0,5,0,5,0s0-3.506,0-5C31,9.239,28.761,7,26,7L26,7z"/><linearGradient id="~Bcl18kQ7eI8RDPJp75vPg" x1="25" x2="25" y1="7.25" y2="57.516" gradientUnits="userSpaceOnUse"><stop offset="0" stop-color="#1a6dff"/><stop offset="1" stop-color="#c822ff"/></linearGradient><path fill="url(#~Bcl18kQ7eI8RDPJp75vPg)" d="M25,35c1.654,0,3,1.369,3,3.053v13.895C28,53.631,26.654,55,25,55s-3-1.369-3-3.053V38.053 C22,36.369,23.346,35,25,35 M25,33c-2.761,0-5,2.262-5,5.053c0,1.59,0,12.311,0,13.895C20,54.738,22.239,57,25,57s5-2.262,5-5.053 c0-1.584,0-12.305,0-13.895C30,35.262,27.761,33,25,33L25,33z"/><linearGradient id="~Bcl18kQ7eI8RDPJp75vPh" x1="12" x2="12" y1="7.25" y2="57.516" gradientUnits="userSpaceOnUse"><stop offset="0" stop-color="#1a6dff"/><stop offset="1" stop-color="#c822ff"/></linearGradient><path fill="url(#~Bcl18kQ7eI8RDPJp75vPh)" d="M15,35v3c0,1.654-1.346,3-3,3s-3-1.346-3-3s1.346-3,3-3H15 M17,33c0,0-3.506,0-5,0 c-2.761,0-5,2.238-5,5c0,2.762,2.239,5,5,5s5-2.238,5-5C17,36.732,17,33,17,33L17,33z"/><linearGradient id="~Bcl18kQ7eI8RDPJp75vPi" x1="19" x2="19" y1="24.161" y2="25.952" gradientUnits="userSpaceOnUse"><stop offset="0" stop-color="#8ac3fa"/><stop offset="1" stop-color="#d3a6f9"/></linearGradient><path fill="url(#~Bcl18kQ7eI8RDPJp75vPi)" d="M26,26H12c-0.552,0-1-0.448-1-1v0c0-0.552,0.448-1,1-1h14c0.552,0,1,0.448,1,1v0	C27,25.552,26.552,26,26,26z"/><linearGradient id="~Bcl18kQ7eI8RDPJp75vPj" x1="25" x2="25" y1="36.75" y2="53.252" gradientUnits="userSpaceOnUse"><stop offset="0" stop-color="#8ac3fa"/><stop offset="1" stop-color="#d3a6f9"/></linearGradient><path fill="url(#~Bcl18kQ7eI8RDPJp75vPj)" d="M24,52V38c0-0.552,0.448-1,1-1h0c0.552,0,1,0.448,1,1v14c0,0.552-0.448,1-1,1h0	C24.448,53,24,52.552,24,52z"/><g><linearGradient id="~Bcl18kQ7eI8RDPJp75vPk" x1="45" x2="45" y1="7.25" y2="57.516" gradientUnits="userSpaceOnUse"><stop offset="0" stop-color="#1a6dff"/><stop offset="1" stop-color="#c822ff"/></linearGradient><path fill="url(#~Bcl18kQ7eI8RDPJp75vPk)" d="M51.947,36C53.631,36,55,37.346,55,39s-1.369,3-3.053,3H38.053C36.369,42,35,40.654,35,39 s1.369-3,3.053-3H51.947 M51.947,34c-1.584,0-12.304,0-13.895,0C35.262,34,33,36.239,33,39s2.262,5,5.053,5 c1.59,0,12.311,0,13.895,0C54.738,44,57,41.761,57,39S54.738,34,51.947,34L51.947,34z"/></g><g><linearGradient id="~Bcl18kQ7eI8RDPJp75vPl" x1="38" x2="38" y1="7.25" y2="57.516" gradientUnits="userSpaceOnUse"><stop offset="0" stop-color="#1a6dff"/><stop offset="1" stop-color="#c822ff"/></linearGradient><path fill="url(#~Bcl18kQ7eI8RDPJp75vPl)" d="M38,49c1.654,0,3,1.346,3,3s-1.346,3-3,3s-3-1.346-3-3v-3H38 M38,47c-1.267,0-5,0-5,0 s0,3.506,0,5c0,2.761,2.239,5,5,5s5-2.239,5-5S40.761,47,38,47L38,47z"/></g><g><linearGradient id="~Bcl18kQ7eI8RDPJp75vPm" x1="39" x2="39" y1="7.25" y2="57.516" gradientUnits="userSpaceOnUse"><stop offset="0" stop-color="#1a6dff"/><stop offset="1" stop-color="#c822ff"/></linearGradient><path fill="url(#~Bcl18kQ7eI8RDPJp75vPm)" d="M39,9c1.654,0,3,1.369,3,3.052v13.895C42,27.631,40.654,29,39,29s-3-1.369-3-3.052V12.052 C36,10.369,37.346,9,39,9 M39,7c-2.761,0-5,2.262-5,5.052c0,1.584,0,12.305,0,13.895C34,28.738,36.239,31,39,31s5-2.262,5-5.052 c0-1.59,0-12.311,0-13.895C44,9.262,41.761,7,39,7L39,7z"/></g><g><linearGradient id="~Bcl18kQ7eI8RDPJp75vPn" x1="52" x2="52" y1="7.25" y2="57.516" gradientUnits="userSpaceOnUse"><stop offset="0" stop-color="#1a6dff"/><stop offset="1" stop-color="#c822ff"/></linearGradient><path fill="url(#~Bcl18kQ7eI8RDPJp75vPn)" d="M52,23c1.654,0,3,1.346,3,3s-1.346,3-3,3h-3v-3C49,24.346,50.346,23,52,23 M52,21 c-2.761,0-5,2.238-5,5c0,1.268,0,5,0,5s3.506,0,5,0c2.761,0,5-2.238,5-5S54.761,21,52,21L52,21z"/></g><linearGradient id="~Bcl18kQ7eI8RDPJp75vPo" x1="45" x2="45" y1="38.184" y2="40.255" gradientUnits="userSpaceOnUse"><stop offset="0" stop-color="#8ac3fa"/><stop offset="1" stop-color="#d3a6f9"/></linearGradient><path fill="url(#~Bcl18kQ7eI8RDPJp75vPo)" d="M38,38h14c0.552,0,1,0.448,1,1l0,0c0,0.552-0.448,1-1,1H38c-0.552,0-1-0.448-1-1l0,0	C37,38.448,37.448,38,38,38z"/><linearGradient id="~Bcl18kQ7eI8RDPJp75vPp" x1="39" x2="39" y1="10.75" y2="27" gradientUnits="userSpaceOnUse"><stop offset="0" stop-color="#8ac3fa"/><stop offset="1" stop-color="#d3a6f9"/></linearGradient><path fill="url(#~Bcl18kQ7eI8RDPJp75vPp)" d="M40,12v14c0,0.552-0.448,1-1,1l0,0c-0.552,0-1-0.448-1-1V12c0-0.552,0.448-1,1-1l0,0	C39.552,11,40,11.448,40,12z"/></svg>