<svg xmlns="http://www.w3.org/2000/svg"  viewBox="0 0 64 64" width="64px" height="64px"><linearGradient id="xiiToDY4N4T11751Aw~Noa" x1="11.5" x2="11.5" y1="10.887" y2="53.863" gradientUnits="userSpaceOnUse"><stop offset="0" stop-color="#6dc7ff"/><stop offset="1" stop-color="#e6abff"/></linearGradient><path fill="url(#xiiToDY4N4T11751Aw~Noa)" d="M14.751,53.863c-0.377,0-0.742-0.17-0.983-0.478l-5.192-6.59C7.44,45.339,7,44.3,7,43.085	V12.138c0-0.513,0.294-0.955,0.768-1.153c0.482-0.197,1.002-0.093,1.363,0.266l5.678,5.602C15.565,17.601,16,18.639,16,19.702	v32.912c0,0.532-0.338,1.007-0.842,1.181C15.024,53.841,14.887,53.863,14.751,53.863z"/><linearGradient id="xiiToDY4N4T11751Aw~Nob" x1="37" x2="37" y1="23" y2="50" gradientUnits="userSpaceOnUse"><stop offset="0" stop-color="#6dc7ff"/><stop offset="1" stop-color="#e6abff"/></linearGradient><path fill="url(#xiiToDY4N4T11751Aw~Nob)" d="M50,23c0,0.875-0.04,1.699-0.952,1.993c-0.798,0.257-1.053,0.27-1.053,0.27v23.143	C46.619,49.15,45.5,49.5,44.317,49.5c-1.442,0-2.263-0.331-3.36-2.024C38.625,43.875,31,31.625,31,31.625V47l3,0.625	c0,0-0.088,1.751-2.699,1.95C29,49.75,24,50,24,50c0-0.625,0.127-1.492,1.125-1.75c0.47-0.121,1.875-0.5,1.875-0.5V27h-3	c0-1.375,0.395-2.454,1.85-2.561L33.625,24L44,40V25.75l-3-0.25c0-1.25,1.201-2.017,2.233-2.123L50,23z"/><linearGradient id="xiiToDY4N4T11751Aw~Noc" x1="32" x2="32" y1="5" y2="58" gradientUnits="userSpaceOnUse"><stop offset="0" stop-color="#1a6dff"/><stop offset="1" stop-color="#c822ff"/></linearGradient><path fill="url(#xiiToDY4N4T11751Aw~Noc)" d="M56.685,13.582L46.306,6.707C44.649,5.546,43.647,5,41.622,5	C41.059,5,9.258,7.327,9.258,7.327C7.157,7.507,6,8.782,6,10.917v32.168c0,1.443,0.517,2.695,1.786,4.325l7.082,8.989	C15.874,57.628,16.812,58,18.587,58c0.224,0,0.46-0.007,0.724-0.019l34.925-2.015C56.347,55.841,58,54.087,58,51.973V16.064	C58,15.075,57.513,14.15,56.685,13.582z M15,25.438v27.176c0,0.237-0.3,0.341-0.446,0.155L9.36,46.177	C8.228,44.722,8,43.915,8,43.085V12.138c0-0.11,0.052-0.188,0.153-0.23c0.103-0.042,0.194-0.025,0.272,0.053l5.681,5.604	C14.678,18.129,15,18.899,15,19.702V25.438z M14.782,15.421L9.71,10.418c-0.276-0.272-0.203-0.584-0.158-0.706	s0.189-0.406,0.576-0.436c0,0,30.754-2.249,31.505-2.277c1.419,0.001,1.995,0.273,3.546,1.359l8.832,5.851	c0.099,0.066,0.134,0.157,0.103,0.272c-0.03,0.115-0.105,0.177-0.225,0.186c0,0-34.13,2.269-34.863,2.269c-0.002,0-0.003,0-0.005,0	C17.44,16.937,16.446,16.716,14.782,15.421z M56,51.973c0,1.057-0.827,1.935-1.882,1.997l-34.771,2.006	c-0.799-0.022-1.388-0.156-1.762-0.511C17.197,55.097,17,54.513,17,53.729V25.438v-4.279c0-1.221,0.308-2.059,1.81-2.181	l35.435-2.299c0.619-0.053,0.99,0.155,1.194,0.341C55.811,17.361,56,17.944,56,18.754V51.973z"/></svg>