<svg xmlns="http://www.w3.org/2000/svg"  viewBox="0 0 64 64" width="64px" height="64px"><linearGradient id="SVGID_1_" x1="17.5" x2="17.5" y1="7.894" y2="47.215" gradientUnits="userSpaceOnUse"><stop offset="0" stop-color="#1a6dff"/><stop offset="1" stop-color="#c822ff"/></linearGradient><path fill="url(#SVGID_1_)" d="M23.6,12.4l-13,1.9c-1.5,0.2-2.6,1.5-2.6,3l0,10.8c0,1.7,1.3,3,3,3h13c1.7,0,3-1.3,3-3V15.4 c0-0.9-0.4-1.7-1-2.3C25.3,12.5,24.4,12.3,23.6,12.4z M25,28.1c0,0.6-0.4,1-1,1H11c-0.6,0-1-0.4-1-1l0-10.8c0-0.5,0.4-0.9,0.9-1 l13-1.9c0,0,0.1,0,0.1,0c0.2,0,0.5,0.1,0.6,0.2c0.2,0.2,0.3,0.5,0.3,0.8V28.1z"/><linearGradient id="SVGID_2_" x1="42.497" x2="42.497" y1="7.894" y2="47.215" gradientUnits="userSpaceOnUse"><stop offset="0" stop-color="#1a6dff"/><stop offset="1" stop-color="#c822ff"/></linearGradient><path fill="url(#SVGID_2_)" d="M32,31.1h21c1.7,0,3-1.3,3-3V11.3c0-0.9-0.4-1.7-1-2.3c-0.7-0.6-1.5-0.8-2.4-0.7l-21,3c-1.5,0.2-2.6,1.5-2.6,3 v13.8C29,29.7,30.3,31.1,32,31.1z M31,14.3c0-0.5,0.4-0.9,0.9-1l21-3c0,0,0.1,0,0.1,0c0.2,0,0.5,0.1,0.7,0.2 c0.2,0.2,0.3,0.5,0.3,0.8v16.8c0,0.6-0.4,1-1,1H32c-0.6,0-1-0.4-1-1V14.3z"/><linearGradient id="SVGID_3_" x1="17.506" x2="17.506" y1="7.894" y2="47.215" gradientUnits="userSpaceOnUse"><stop offset="0" stop-color="#1a6dff"/><stop offset="1" stop-color="#c822ff"/></linearGradient><path fill="url(#SVGID_3_)" d="M24,32.9H11c-1.7,0-3,1.3-3,3l0,11c0,1.5,1.1,2.8,2.6,3l13,1.8c0.1,0,0.3,0,0.4,0c0.7,0,1.4-0.3,2-0.7 c0.7-0.6,1-1.4,1-2.3V35.9C27,34.3,25.7,32.9,24,32.9z M25,48.7c0,0.3-0.1,0.6-0.3,0.8c-0.2,0.2-0.5,0.3-0.8,0.2l-13-1.8 c-0.5-0.1-0.9-0.5-0.9-1l0-11c0-0.6,0.4-1,1-1h13c0.6,0,1,0.4,1,1V48.7z"/><linearGradient id="SVGID_4_" x1="42.5" x2="42.5" y1="7.894" y2="47.215" gradientUnits="userSpaceOnUse"><stop offset="0" stop-color="#1a6dff"/><stop offset="1" stop-color="#c822ff"/></linearGradient><path fill="url(#SVGID_4_)" d="M55.1,33.8c-0.6-0.6-1.3-0.9-2.1-0.9H32c-1.7,0-3,1.3-3,3v13.9c0,1.5,1.1,2.8,2.6,3l2.1,0.3c0.1,0,0.2,0,0.3,0 l18.6,2.6c0.1,0,0.3,0,0.4,0c0.7,0,1.4-0.3,2-0.7c0.7-0.6,1-1.4,1-2.3l0-16.8C56,35.1,55.7,34.4,55.1,33.8z M54,52.7 c0,0.3-0.1,0.6-0.3,0.8c-0.2,0.2-0.5,0.3-0.8,0.2L34,51.1c0,0-0.1,0-0.1,0c-0.1,0-0.1,0-0.1,0l-1.8-0.3c-0.5-0.1-0.9-0.5-0.9-1 V35.9c0-0.6,0.4-1,1-1h21c0.3,0,0.5,0.1,0.7,0.3c0.2,0.2,0.3,0.4,0.3,0.7L54,52.7z"/><g><linearGradient id="SVGID_5_" x1="48.47" x2="48.47" y1="45.298" y2="49.703" gradientUnits="userSpaceOnUse"><stop offset="0" stop-color="#6dc7ff"/><stop offset="1" stop-color="#e6abff"/></linearGradient><path fill="url(#SVGID_5_)" d="M45.2,49.7l6-3.8c0.4-0.2,0.8,0,0.8,0.5l0,4.6c0,0.3-0.3,0.6-0.6,0.5l-6-0.8C44.9,50.6,44.8,49.9,45.2,49.7z"/></g></svg>