<svg xmlns="http://www.w3.org/2000/svg"  viewBox="0 0 64 64" width="64px" height="64px"><linearGradient id="C9S0WqyY81FUT1Xdr9f50a" x1="32" x2="32" y1="7" y2="57" gradientUnits="userSpaceOnUse" spreadMethod="reflect"><stop offset="0" stop-color="#1a6dff"/><stop offset="1" stop-color="#c822ff"/></linearGradient><path fill="none" stroke="url(#C9S0WqyY81FUT1Xdr9f50a)" stroke-miterlimit="10" stroke-width="2" d="M12,51.636V12.364 C12,9.954,13.99,8,16.444,8h31.111C50.01,8,52,9.954,52,12.364v39.273C52,54.046,50.01,56,47.556,56H16.444 C13.99,56,12,54.046,12,51.636z"/><linearGradient id="C9S0WqyY81FUT1Xdr9f50b" x1="31.498" x2="31.498" y1="13.875" y2="48.751" gradientUnits="userSpaceOnUse" spreadMethod="reflect"><stop offset="0" stop-color="#6dc7ff"/><stop offset="1" stop-color="#e6abff"/></linearGradient><path fill="url(#C9S0WqyY81FUT1Xdr9f50b)" d="M42,30.554V49h-7V30.5c0-0.25-0.26-0.5-1.25-0.5c-1.556,0-4.519,0.321-11.125,2.875 c0,0-0.375,0.125-0.614,0.125C20.875,33,21,31.25,21,31.25V14h7v11c1.535-0.471,4.215-1,6.75-1C39.477,24,42,26.237,42,30.554z"/><linearGradient id="C9S0WqyY81FUT1Xdr9f50c" x1="38.5" x2="38.5" y1="13.875" y2="48.751" gradientUnits="userSpaceOnUse" spreadMethod="reflect"><stop offset="0" stop-color="#6dc7ff"/><stop offset="1" stop-color="#e6abff"/></linearGradient><path fill="url(#C9S0WqyY81FUT1Xdr9f50c)" d="M44,14.03l-0.43,1.283c-0.036,0.116-0.906,2.673-3.516,6.31L39.785,22H33l1.193-1.573 c1.596-2.103,3.033-5.78,3.051-5.818l0.233-0.579H44z"/><linearGradient id="C9S0WqyY81FUT1Xdr9f50d" x1="24" x2="24" y1="14.083" y2="48.869" gradientUnits="userSpaceOnUse" spreadMethod="reflect"><stop offset="0" stop-color="#6dc7ff"/><stop offset="1" stop-color="#e6abff"/></linearGradient><path fill="url(#C9S0WqyY81FUT1Xdr9f50d)" d="M27 43L21 49 21 37z"/></svg>