<svg xmlns="http://www.w3.org/2000/svg"  viewBox="0 0 64 64" width="64px" height="64px"><linearGradient id="uCh3zkqG7DjKcpZsAwNGHa" x1="32" x2="32" y1="141" y2="95" gradientTransform="matrix(1 0 0 -1 0 150)" gradientUnits="userSpaceOnUse"><stop offset="0" stop-color="#1a6dff"/><stop offset="1" stop-color="#c822ff"/></linearGradient><path fill="url(#uCh3zkqG7DjKcpZsAwNGHa)" d="M46.694,11C50.171,11,53,13.829,53,17.306v29.389C53,50.171,50.171,53,46.694,53H17.306 C13.829,53,11,50.171,11,46.694V17.306C11,13.829,13.829,11,17.306,11H46.694 M46.694,9H17.306C12.718,9,9,12.718,9,17.306v29.389 C9,51.282,12.718,55,17.306,55h29.389C51.282,55,55,51.282,55,46.694V17.306C55,12.718,51.282,9,46.694,9L46.694,9z"/><g><linearGradient id="uCh3zkqG7DjKcpZsAwNGHb" x1="31.831" x2="31.831" y1="15" y2="49" gradientUnits="userSpaceOnUse"><stop offset="0" stop-color="#6dc7ff"/><stop offset="1" stop-color="#e6abff"/></linearGradient><path fill="url(#uCh3zkqG7DjKcpZsAwNGHb)" d="M15,49c0,0-1.117-14.315,12-19c14-5,21-7,21-15c0,0,5,13-12,21C26.255,40.586,20,36,15,49z"/></g></svg>