<svg xmlns="http://www.w3.org/2000/svg"  viewBox="0 0 64 64" width="64px" height="64px"><linearGradient id="I_jFO5ILj78XNMK_LUfToa" x1="39" x2="39" y1="27" y2="40" gradientUnits="userSpaceOnUse" spreadMethod="reflect"><stop offset="0" stop-color="#6dc7ff"/><stop offset="1" stop-color="#e6abff"/></linearGradient><path fill="url(#I_jFO5ILj78XNMK_LUfToa)" d="M44.455,28.747C43.023,27.662,41.1,27.001,39,27c-2.1,0.001-4.024,0.662-5.456,1.747 c-1.457,1.105-2.423,2.661-2.534,4.428c-0.112,1.815,0.702,3.504,2.132,4.754C34.6,39.201,36.678,40,39.001,40 c2.322,0,4.399-0.799,5.855-2.072c1.43-1.249,2.245-2.938,2.134-4.754C46.879,31.409,45.912,29.852,44.455,28.747z"/><linearGradient id="I_jFO5ILj78XNMK_LUfTob" x1="39" x2="39" y1="7.252" y2="53.649" gradientUnits="userSpaceOnUse" spreadMethod="reflect"><stop offset="0" stop-color="#1a6dff"/><stop offset="1" stop-color="#c822ff"/></linearGradient><path fill="url(#I_jFO5ILj78XNMK_LUfTob)" d="M38.976,45c-3.721,0-7.14-1.343-9.63-3.784c-1.21-1.183-2.112-2.546-2.682-4.049 c-0.554-1.471-0.763-3.006-0.622-4.564c0.136-1.513,0.592-2.955,1.355-4.287c0.735-1.285,1.734-2.431,2.969-3.406 c2.384-1.873,5.449-2.906,8.633-2.911c0.006,0,0.012,0,0.017,0c3.176,0,6.234,1.024,8.615,2.886 c1.237,0.972,2.236,2.114,2.971,3.398c0.763,1.331,1.22,2.772,1.357,4.283c0.14,1.563-0.07,3.099-0.622,4.565c0,0,0,0,0,0 c-0.568,1.504-1.469,2.869-2.68,4.056c-2.494,2.453-5.922,3.806-9.652,3.812C38.995,45,38.986,45,38.976,45z M39.017,24 c-0.005,0-0.01,0-0.015,0c-2.739,0.003-5.366,0.885-7.398,2.482c-1.031,0.814-1.863,1.766-2.47,2.828 c-0.619,1.081-0.989,2.249-1.099,3.473c-0.114,1.255,0.055,2.493,0.501,3.678c0.465,1.227,1.208,2.347,2.21,3.326 C32.861,41.86,35.783,43,38.977,43c0.008,0,0.016,0,0.024,0c3.204-0.004,6.135-1.155,8.254-3.239 c1.002-0.983,1.745-2.105,2.209-3.335l0,0c0.446-1.183,0.615-2.421,0.502-3.681c-0.111-1.22-0.481-2.388-1.101-3.468 c-0.606-1.06-1.436-2.008-2.468-2.818C44.369,24.874,41.748,24,39.017,24z"/><linearGradient id="I_jFO5ILj78XNMK_LUfToc" x1="30.5" x2="30.5" y1="7.25" y2="53.649" gradientUnits="userSpaceOnUse" spreadMethod="reflect"><stop offset="0" stop-color="#1a6dff"/><stop offset="1" stop-color="#c822ff"/></linearGradient><path fill="url(#I_jFO5ILj78XNMK_LUfToc)" d="M38.853,54c-15.676,0-20.545-12.201-20.545-16.645c0-0.018,0-0.04,0-0.064l-9.518,7.733 C8.061,45.647,7.108,46,6.126,46c-1.206,0-2.348-0.525-3.133-1.44c-0.717-0.835-1.066-1.901-0.981-3 c0.084-1.099,0.592-2.099,1.428-2.816L19.982,25L13,25c-2.206,0-4-1.794-4-4s1.794-4,4-4l21.234,0l-4.831-3.703 c-0.03-0.02-0.06-0.041-0.088-0.063c-0.731-0.584-1.19-1.417-1.294-2.347c-0.104-0.929,0.162-1.843,0.747-2.573 c0.583-0.73,1.416-1.189,2.345-1.293c0.931-0.102,1.844,0.162,2.574,0.746l18.027,13.176c0.039,0.028,0.11,0.093,0.159,0.141 l0.007-0.009c1.806,1.402,3.314,3.065,4.482,4.943c1.296,2.085,2.126,4.358,2.467,6.756c0.175,1.24,0.215,2.493,0.121,3.726 C58.953,46.608,50.5,54,38.853,54z M19.352,34.154c0.15,0,0.302,0.034,0.442,0.103c0.35,0.173,0.568,0.534,0.557,0.924 c-0.027,0.988-0.048,1.884-0.043,2.156C20.308,41.108,24.873,52,38.853,52c10.657,0,18.1-6.405,18.1-15.576 c0.087-1.166,0.051-2.273-0.104-3.369c-0.301-2.12-1.037-4.133-2.185-5.98c-1.028-1.652-2.354-3.122-3.943-4.367 c-0.061-0.034-0.117-0.072-0.162-0.112c-0.029-0.026-0.057-0.053-0.083-0.081L32.472,9.355c-0.347-0.277-0.739-0.391-1.137-0.346 C30.937,9.054,30.58,9.25,30.33,9.563c-0.251,0.313-0.365,0.705-0.32,1.103c0.042,0.382,0.226,0.727,0.518,0.975l7.683,5.515 c0.375,0.239,0.548,0.696,0.424,1.124c-0.125,0.427-0.544,0.666-0.989,0.666L13,19c-1.103,0-2,0.897-2,2s0.897,2,2,2h1l0,0l8.75,0 c0.421,0,0.797,0.264,0.94,0.66c0.143,0.396,0.022,0.84-0.301,1.109L4.73,40.271c-0.419,0.359-0.681,0.875-0.724,1.441 s0.136,1.115,0.505,1.545c0.733,0.856,2.137,0.967,2.997,0.23l11.213-9.11C18.903,34.23,19.126,34.154,19.352,34.154z"/></svg>