<?xml version="1.0" standalone="no"?>
<!DOCTYPE svg PUBLIC "-//W3C//DTD SVG 20010904//EN"
 "http://www.w3.org/TR/2001/REC-SVG-20010904/DTD/svg10.dtd">
<svg version="1.0" xmlns="http://www.w3.org/2000/svg"
 width="1998.000000pt" height="666.000000pt" viewBox="0 0 1998.000000 666.000000"
 preserveAspectRatio="xMidYMid meet">

<g transform="translate(0.000000,666.000000) scale(0.100000,-0.100000)"
fill="#000000" stroke="none">
<path d="M2816 5354 c-411 -227 -754 -418 -761 -424 -7 -6 -151 -309 -319
-674 l-307 -664 468 -1077 469 -1078 664 -228 c366 -126 665 -229 665 -229 0
0 55 111 123 248 l123 247 249 1502 c138 827 250 1507 250 1513 0 5 -28 27
-62 49 -46 29 -67 37 -82 31 -12 -4 -447 -186 -967 -404 -521 -218 -951 -396
-956 -396 -8 0 -143 267 -143 284 0 6 242 200 858 685 232 183 422 333 422
334 3 8 58 692 57 693 -1 1 -339 -184 -751 -412z"/>
</g>
</svg>
