<svg id="svg" version="1.1" xmlns="http://www.w3.org/2000/svg" xmlns:xlink="http://www.w3.org/1999/xlink" width="400" height="133.33333333333334" viewBox="0, 0, 400,133.33333333333334"><g id="svgg"><path id="path0" d="M127.500 51.643 C 127.500 51.722,127.045 51.833,126.489 51.892 C 125.417 52.004,123.781 52.405,123.288 52.678 C 123.126 52.767,122.565 53.001,122.041 53.197 C 121.518 53.392,120.990 53.653,120.867 53.776 C 120.744 53.899,120.566 54.000,120.472 54.000 C 119.881 54.000,114.833 58.239,114.833 58.735 C 114.833 58.787,114.571 59.174,114.250 59.595 C 113.929 60.015,113.667 60.466,113.667 60.596 C 113.667 60.727,113.600 60.833,113.519 60.833 C 113.438 60.833,113.243 61.115,113.086 61.458 C 112.929 61.802,112.631 62.421,112.424 62.833 C 112.217 63.246,111.954 63.977,111.840 64.459 C 111.726 64.940,111.574 65.371,111.503 65.415 C 110.705 65.908,110.697 76.350,111.494 77.417 C 111.563 77.508,111.708 77.948,111.816 78.394 C 112.302 80.383,114.385 83.879,116.083 85.556 C 117.174 86.633,119.021 88.167,119.228 88.167 C 119.317 88.167,119.509 88.274,119.654 88.406 C 120.025 88.741,122.864 90.164,123.167 90.167 C 123.304 90.168,123.630 90.280,123.890 90.416 C 125.939 91.484,136.234 91.569,136.998 90.524 C 137.045 90.460,137.533 90.270,138.083 90.101 C 138.986 89.825,142.213 88.110,142.833 87.577 C 144.220 86.386,146.534 83.895,146.932 83.167 C 147.107 82.846,147.333 82.530,147.434 82.464 C 147.535 82.398,147.747 82.004,147.906 81.589 C 148.064 81.173,148.250 80.833,148.319 80.833 C 148.388 80.833,148.623 80.290,148.841 79.625 C 149.060 78.960,149.290 78.379,149.352 78.333 C 149.415 78.287,149.592 77.612,149.746 76.833 C 149.900 76.054,150.114 75.117,150.221 74.750 C 150.463 73.924,150.474 68.195,150.234 68.030 C 150.143 67.968,149.971 67.317,149.852 66.583 C 149.734 65.850,149.535 65.025,149.410 64.750 C 149.286 64.475,149.031 63.805,148.844 63.261 C 148.657 62.717,148.435 62.229,148.350 62.177 C 148.266 62.125,148.065 61.745,147.903 61.333 C 147.741 60.921,147.434 60.404,147.221 60.186 C 147.008 59.967,146.833 59.710,146.833 59.615 C 146.833 59.402,145.335 57.622,144.491 56.833 C 143.239 55.663,142.426 55.000,142.241 55.000 C 142.137 55.000,141.925 54.860,141.771 54.690 C 141.616 54.519,141.174 54.240,140.787 54.069 C 140.400 53.899,140.046 53.710,140.000 53.651 C 139.954 53.591,139.504 53.373,139.000 53.168 C 138.496 52.962,137.858 52.696,137.583 52.577 C 136.998 52.324,134.700 51.833,134.100 51.833 C 133.873 51.833,133.640 51.758,133.583 51.667 C 133.456 51.461,127.500 51.438,127.500 51.643 M201.167 51.633 C 201.167 51.706,200.626 51.858,199.966 51.971 C 198.657 52.196,196.246 53.258,195.523 53.929 C 195.281 54.153,194.971 54.376,194.833 54.424 C 194.696 54.472,194.283 54.895,193.917 55.364 C 193.550 55.832,193.175 56.298,193.083 56.400 C 192.665 56.861,191.868 58.850,191.678 59.906 C 191.380 61.560,191.587 65.226,191.994 65.500 C 192.062 65.546,192.245 65.971,192.401 66.444 C 192.556 66.917,192.792 67.346,192.925 67.397 C 193.058 67.448,193.167 67.595,193.167 67.725 C 193.167 68.058,195.442 70.164,196.020 70.365 C 196.284 70.457,196.500 70.595,196.500 70.671 C 196.500 70.747,196.930 70.970,197.456 71.167 C 197.982 71.364,198.489 71.584,198.581 71.657 C 198.674 71.730,199.275 71.953,199.917 72.153 C 200.558 72.354,201.202 72.582,201.348 72.660 C 201.493 72.738,202.243 72.971,203.015 73.178 C 203.786 73.384,204.454 73.605,204.500 73.668 C 204.546 73.732,205.089 73.951,205.707 74.155 C 206.324 74.359,206.873 74.596,206.926 74.682 C 206.979 74.768,207.314 74.987,207.671 75.169 C 208.274 75.477,209.217 76.317,209.854 77.116 C 210.864 78.381,210.993 83.833,210.013 83.833 C 209.954 83.833,209.764 84.077,209.592 84.375 C 209.224 85.010,208.439 85.763,207.792 86.102 C 207.540 86.234,207.333 86.401,207.333 86.473 C 207.333 86.546,206.827 86.776,206.208 86.984 C 205.590 87.193,204.903 87.450,204.683 87.557 C 204.129 87.824,200.630 87.806,200.539 87.535 C 200.502 87.424,200.378 87.333,200.264 87.333 C 199.797 87.333,197.942 86.625,197.618 86.324 C 197.427 86.146,197.194 86.000,197.099 86.000 C 196.784 86.000,194.700 83.904,194.491 83.375 C 194.306 82.911,193.938 82.896,193.500 83.333 C 193.317 83.517,193.126 83.667,193.077 83.667 C 192.954 83.667,192.040 84.332,191.538 84.786 C 191.313 84.990,190.988 85.201,190.815 85.256 C 190.356 85.402,190.429 85.851,191.000 86.390 C 191.275 86.649,191.500 86.919,191.500 86.990 C 191.500 87.279,195.298 90.000,195.703 90.000 C 195.769 90.000,196.230 90.186,196.728 90.414 C 199.230 91.558,205.766 91.619,208.083 90.518 C 208.267 90.431,208.829 90.166,209.333 89.930 C 211.203 89.052,212.769 87.701,213.503 86.333 C 213.725 85.921,213.996 85.471,214.106 85.333 C 214.347 85.031,214.833 83.205,214.833 82.601 C 214.833 82.362,214.908 82.167,215.000 82.167 C 215.100 82.167,215.167 81.476,215.167 80.427 C 215.167 79.446,215.094 78.641,215.000 78.583 C 214.908 78.527,214.833 78.272,214.833 78.018 C 214.833 77.506,214.205 75.465,214.007 75.333 C 213.938 75.287,213.777 75.053,213.649 74.811 C 213.354 74.254,212.218 73.000,212.009 73.000 C 211.921 73.000,211.783 72.881,211.702 72.735 C 211.523 72.417,210.579 71.824,209.333 71.250 C 208.829 71.017,208.229 70.723,208.000 70.596 C 207.771 70.469,207.133 70.237,206.583 70.079 C 206.033 69.922,205.506 69.731,205.411 69.656 C 205.316 69.580,204.641 69.356,203.911 69.157 C 203.181 68.959,202.508 68.740,202.417 68.670 C 202.325 68.601,201.725 68.378,201.083 68.174 C 200.442 67.970,199.812 67.716,199.685 67.610 C 199.557 67.504,199.169 67.267,198.822 67.083 C 197.562 66.417,196.167 64.794,196.167 63.994 C 196.167 63.851,196.073 63.640,195.958 63.525 C 195.704 63.270,195.688 60.634,195.939 60.306 C 196.033 60.183,196.247 59.708,196.415 59.250 C 196.829 58.125,198.500 56.487,199.660 56.070 C 200.122 55.903,200.500 55.716,200.500 55.653 C 200.500 55.386,202.787 55.125,204.404 55.207 C 207.077 55.344,208.926 56.267,210.796 58.399 L 211.342 59.021 212.046 58.475 C 213.697 57.195,214.500 56.441,214.500 56.170 C 214.500 55.806,212.959 54.250,212.316 53.965 C 212.050 53.848,211.833 53.702,211.833 53.640 C 211.833 53.242,208.015 51.833,206.934 51.833 C 206.695 51.833,206.500 51.758,206.500 51.667 C 206.500 51.563,205.500 51.500,203.833 51.500 C 202.367 51.500,201.167 51.560,201.167 51.633 M158.500 71.318 L 158.500 90.333 165.625 90.330 C 173.182 90.327,175.817 90.131,176.750 89.503 C 176.842 89.441,177.292 89.255,177.750 89.089 C 178.208 88.923,178.696 88.703,178.833 88.600 C 178.971 88.497,179.346 88.269,179.667 88.094 C 180.868 87.436,183.000 85.154,183.000 84.526 C 183.000 84.435,183.079 84.335,183.177 84.302 C 183.274 84.270,183.484 83.741,183.644 83.127 C 183.803 82.513,183.986 81.958,184.050 81.894 C 184.281 81.663,184.172 78.165,183.907 77.281 C 183.764 76.806,183.564 76.135,183.463 75.792 C 183.363 75.448,183.231 75.167,183.172 75.167 C 183.113 75.167,182.939 74.885,182.787 74.542 C 182.479 73.849,180.803 72.066,180.313 71.910 C 180.141 71.856,180.000 71.750,180.000 71.675 C 180.000 71.600,179.569 71.374,179.042 71.173 C 178.515 70.971,177.968 70.747,177.828 70.675 C 177.687 70.602,177.312 70.485,176.995 70.414 L 176.417 70.286 177.075 70.057 C 177.438 69.931,177.775 69.772,177.825 69.705 C 177.876 69.638,178.133 69.471,178.397 69.335 C 179.124 68.959,180.266 67.899,180.691 67.204 C 180.900 66.862,181.165 66.486,181.281 66.367 C 181.397 66.249,181.571 65.836,181.668 65.451 C 181.766 65.065,181.955 64.398,182.090 63.969 C 182.367 63.081,182.424 60.500,182.167 60.500 C 182.075 60.500,181.999 60.294,181.998 60.042 C 181.995 59.349,181.543 57.998,181.079 57.298 C 180.852 56.955,180.667 56.623,180.667 56.560 C 180.667 56.459,179.303 55.129,178.667 54.609 C 178.529 54.497,178.117 54.258,177.750 54.077 C 177.383 53.897,177.045 53.699,176.998 53.638 C 176.886 53.490,174.372 52.833,173.919 52.833 C 173.725 52.833,173.473 52.740,173.358 52.625 C 173.200 52.466,171.401 52.403,165.825 52.360 L 158.500 52.304 158.500 71.318 M223.500 71.333 L 223.500 90.333 225.583 90.333 L 227.667 90.333 227.667 71.333 L 227.667 52.333 225.583 52.333 L 223.500 52.333 223.500 71.333 M238.000 71.329 L 238.000 90.353 246.292 90.286 C 254.941 90.216,255.887 90.142,257.442 89.413 C 257.731 89.278,258.075 89.167,258.207 89.167 C 258.735 89.167,262.301 87.247,263.605 86.262 C 265.328 84.958,268.070 81.695,268.412 80.542 C 268.473 80.335,268.586 80.167,268.664 80.167 C 268.742 80.167,268.972 79.660,269.175 79.042 C 269.378 78.423,269.603 77.842,269.674 77.750 C 270.643 76.503,270.707 67.506,269.762 65.450 C 269.628 65.156,269.364 64.472,269.177 63.928 C 268.990 63.384,268.772 62.896,268.692 62.844 C 268.612 62.792,268.445 62.465,268.321 62.118 C 268.196 61.770,267.942 61.322,267.757 61.123 C 267.571 60.923,267.306 60.552,267.168 60.298 C 266.830 59.675,264.226 57.041,263.822 56.913 C 263.645 56.857,263.500 56.747,263.500 56.669 C 263.500 56.591,263.219 56.355,262.875 56.145 C 262.531 55.935,262.167 55.682,262.066 55.584 C 261.965 55.486,261.552 55.260,261.149 55.083 C 260.746 54.905,260.374 54.700,260.322 54.628 C 260.271 54.555,259.783 54.343,259.239 54.156 C 258.695 53.969,258.025 53.713,257.750 53.587 C 257.475 53.461,256.575 53.231,255.750 53.075 C 254.925 52.920,254.100 52.708,253.917 52.605 C 253.687 52.475,251.171 52.399,245.792 52.361 L 238.000 52.305 238.000 71.329 M278.833 71.333 L 278.833 90.333 280.917 90.333 L 283.000 90.333 283.000 71.333 L 283.000 52.333 280.917 52.333 L 278.833 52.333 278.833 71.333 M304.750 52.833 C 304.690 53.108,304.583 53.333,304.513 53.333 C 304.444 53.333,304.287 53.652,304.165 54.042 C 304.043 54.431,303.775 55.087,303.569 55.500 C 303.363 55.913,303.064 56.587,302.904 57.000 C 302.610 57.761,302.059 59.029,301.487 60.262 C 301.314 60.636,301.058 61.267,300.917 61.665 C 300.777 62.062,300.594 62.470,300.510 62.571 C 300.427 62.672,300.192 63.203,299.988 63.752 C 299.784 64.301,299.564 64.787,299.500 64.833 C 299.435 64.879,299.215 65.404,299.010 66.000 C 298.806 66.596,298.576 67.159,298.500 67.250 C 298.423 67.342,298.203 67.830,298.010 68.334 C 297.817 68.838,297.520 69.512,297.350 69.833 C 297.180 70.154,296.947 70.717,296.832 71.083 C 296.717 71.450,296.564 71.825,296.492 71.917 C 296.420 72.009,296.202 72.496,296.007 73.000 C 295.812 73.504,295.508 74.217,295.331 74.583 C 294.619 76.060,293.667 78.349,293.667 78.584 C 293.667 78.721,293.598 78.833,293.514 78.833 C 293.429 78.833,293.200 79.316,293.004 79.906 C 292.807 80.496,292.595 81.002,292.532 81.031 C 292.468 81.060,292.276 81.496,292.104 82.000 C 291.932 82.504,291.688 83.083,291.562 83.286 C 291.436 83.490,291.172 84.090,290.975 84.620 C 290.778 85.150,290.564 85.621,290.500 85.667 C 290.435 85.712,290.215 86.237,290.011 86.832 C 289.807 87.427,289.585 87.952,289.520 87.999 C 289.388 88.092,288.667 89.938,288.667 90.181 C 288.667 90.265,289.673 90.333,290.914 90.333 L 293.161 90.333 293.559 89.542 C 293.778 89.106,294.012 88.563,294.079 88.333 C 294.146 88.104,294.340 87.617,294.509 87.250 C 294.873 86.463,295.558 84.784,296.039 83.500 C 296.228 82.996,296.437 82.546,296.504 82.500 C 296.571 82.454,296.761 81.985,296.927 81.458 L 297.228 80.500 306.831 80.500 L 316.434 80.500 316.738 81.375 C 316.906 81.856,317.144 82.413,317.267 82.613 C 317.391 82.813,317.655 83.451,317.854 84.030 C 318.053 84.609,318.269 85.121,318.333 85.167 C 318.398 85.212,318.617 85.755,318.822 86.373 C 319.026 86.991,319.256 87.536,319.334 87.584 C 319.412 87.632,319.566 87.952,319.677 88.294 C 319.788 88.636,320.027 89.235,320.208 89.625 L 320.537 90.333 322.863 90.333 L 325.189 90.333 325.077 89.958 C 325.016 89.752,324.719 89.021,324.418 88.333 C 324.117 87.646,323.781 86.802,323.672 86.458 C 323.563 86.115,323.423 85.833,323.361 85.833 C 323.299 85.833,323.150 85.521,323.031 85.139 C 322.912 84.757,322.663 84.139,322.479 83.764 C 322.294 83.390,321.987 82.671,321.796 82.167 C 321.605 81.662,321.356 81.100,321.243 80.917 C 321.130 80.733,320.911 80.190,320.755 79.708 C 320.600 79.227,320.422 78.833,320.361 78.833 C 320.299 78.833,320.149 78.515,320.028 78.125 C 319.906 77.735,319.626 77.054,319.404 76.611 C 319.182 76.168,319.000 75.743,319.000 75.665 C 319.000 75.588,318.750 74.975,318.445 74.304 C 318.140 73.633,317.788 72.821,317.663 72.500 C 317.538 72.179,317.386 71.879,317.326 71.833 C 317.265 71.787,317.086 71.356,316.928 70.875 C 316.769 70.394,316.571 70.000,316.487 70.000 C 316.402 70.000,316.333 69.890,316.333 69.756 C 316.333 69.516,316.169 69.099,315.414 67.417 C 315.208 66.958,314.943 66.321,314.825 66.000 C 314.707 65.679,314.548 65.334,314.471 65.232 C 314.394 65.130,314.181 64.609,313.997 64.073 C 313.812 63.538,313.606 63.059,313.538 63.008 C 313.470 62.958,313.273 62.504,313.101 62.000 C 312.928 61.496,312.648 60.849,312.477 60.564 C 312.306 60.278,312.167 59.955,312.167 59.846 C 312.167 59.737,311.952 59.216,311.690 58.687 C 311.428 58.159,311.084 57.338,310.927 56.863 C 310.769 56.388,310.589 56.000,310.527 56.000 C 310.465 56.000,310.324 55.711,310.214 55.359 C 310.104 55.006,309.767 54.181,309.465 53.526 L 308.917 52.333 306.888 52.333 L 304.860 52.333 304.750 52.833 M330.833 71.333 L 330.833 90.333 332.917 90.333 L 335.000 90.333 335.000 74.407 C 335.000 65.647,335.061 58.518,335.135 58.564 C 335.209 58.610,335.711 59.308,336.251 60.115 C 336.790 60.923,337.277 61.621,337.333 61.667 C 337.389 61.712,337.615 62.050,337.837 62.417 C 338.058 62.783,338.298 63.158,338.369 63.250 C 338.441 63.342,338.893 64.017,339.374 64.750 C 339.856 65.483,340.307 66.158,340.376 66.250 C 340.596 66.542,341.972 68.556,342.482 69.333 C 342.753 69.746,343.093 70.215,343.238 70.375 C 343.382 70.535,343.500 70.707,343.500 70.757 C 343.500 70.880,344.916 73.009,345.241 73.375 C 345.384 73.535,345.500 73.713,345.500 73.769 C 345.500 73.826,345.781 74.254,346.125 74.721 C 346.469 75.188,346.825 75.699,346.917 75.857 C 347.180 76.309,349.067 79.074,349.176 79.167 C 349.231 79.212,349.452 79.569,349.668 79.958 C 349.884 80.348,350.109 80.667,350.168 80.667 C 350.226 80.667,350.439 80.997,350.641 81.400 C 350.842 81.804,351.118 82.176,351.253 82.228 C 351.389 82.280,351.500 82.398,351.500 82.490 C 351.500 82.582,351.894 83.227,352.375 83.924 C 352.856 84.621,353.325 85.312,353.417 85.460 C 353.508 85.608,353.941 86.259,354.379 86.906 C 354.817 87.554,355.516 88.590,355.933 89.208 L 356.692 90.333 359.263 90.333 L 361.833 90.333 361.833 71.328 L 361.833 52.323 359.792 52.370 L 357.750 52.417 357.667 68.167 L 357.583 83.917 356.917 82.917 C 356.551 82.367,356.157 81.857,356.042 81.783 C 355.927 81.710,355.833 81.570,355.833 81.472 C 355.833 81.375,355.590 80.947,355.292 80.522 C 354.994 80.098,354.675 79.630,354.583 79.483 C 354.068 78.658,353.419 77.728,353.218 77.528 C 353.092 77.402,352.844 77.013,352.666 76.665 C 352.488 76.316,352.284 76.005,352.212 75.974 C 352.140 75.942,351.750 75.392,351.344 74.750 C 350.938 74.108,350.432 73.392,350.219 73.158 C 350.007 72.923,349.833 72.656,349.833 72.564 C 349.833 72.472,349.700 72.251,349.536 72.073 C 349.373 71.895,349.057 71.450,348.834 71.083 C 348.611 70.717,348.331 70.316,348.211 70.193 C 348.091 70.069,347.880 69.751,347.742 69.484 C 347.604 69.218,347.418 69.000,347.329 69.000 C 347.240 69.000,347.167 68.922,347.167 68.826 C 347.167 68.661,345.932 66.718,345.467 66.152 C 345.348 66.006,345.175 65.770,345.083 65.626 C 344.589 64.851,343.474 63.217,343.294 63.005 C 343.179 62.871,342.949 62.506,342.783 62.196 C 342.616 61.885,342.297 61.433,342.073 61.192 C 341.850 60.951,341.667 60.663,341.667 60.552 C 341.667 60.441,341.569 60.290,341.451 60.217 C 341.332 60.143,341.071 59.801,340.871 59.456 C 340.671 59.110,340.432 58.735,340.339 58.622 C 339.799 57.963,339.000 56.810,339.000 56.690 C 339.000 56.612,338.813 56.346,338.583 56.099 C 338.354 55.852,338.167 55.613,338.167 55.569 C 338.167 55.470,336.511 53.025,336.173 52.625 C 335.958 52.371,335.600 52.333,333.380 52.333 L 330.833 52.333 330.833 71.333 M132.504 55.338 C 133.281 55.432,134.029 55.556,134.167 55.613 C 134.304 55.670,134.510 55.736,134.623 55.760 C 135.411 55.925,137.136 56.582,137.677 56.923 C 138.034 57.149,138.378 57.333,138.440 57.333 C 138.579 57.333,140.282 58.598,140.780 59.072 C 140.979 59.261,141.222 59.492,141.320 59.583 C 141.694 59.935,143.000 61.569,143.000 61.686 C 143.000 61.754,143.105 61.915,143.234 62.043 C 143.950 62.759,145.502 66.882,145.750 68.726 C 146.010 70.655,145.755 75.460,145.361 76.083 C 145.303 76.175,145.251 76.287,145.246 76.333 C 145.210 76.657,144.419 78.799,144.261 79.000 C 144.153 79.137,143.969 79.475,143.852 79.750 C 143.445 80.708,142.460 82.029,141.276 83.206 C 139.621 84.850,139.059 85.279,137.750 85.900 C 137.383 86.073,136.971 86.280,136.833 86.358 C 136.075 86.791,133.983 87.333,133.072 87.333 C 132.849 87.333,132.667 87.408,132.667 87.500 C 132.667 87.602,131.864 87.667,130.593 87.667 C 129.391 87.667,128.476 87.597,128.417 87.500 C 128.360 87.408,128.117 87.333,127.876 87.333 C 126.627 87.333,123.460 86.155,122.219 85.229 C 121.928 85.012,121.642 84.833,121.584 84.833 C 121.526 84.833,121.277 84.646,121.031 84.417 C 119.486 82.982,119.000 82.500,119.000 82.403 C 119.000 82.343,118.766 82.027,118.479 81.701 C 118.193 81.375,117.857 80.865,117.733 80.569 C 117.610 80.273,117.450 80.005,117.379 79.974 C 117.205 79.897,116.667 78.716,116.667 78.411 C 116.667 78.277,116.597 78.167,116.512 78.167 C 116.350 78.167,115.941 76.890,115.737 75.750 C 115.672 75.383,115.536 75.030,115.434 74.964 C 115.174 74.797,115.182 68.525,115.443 67.984 C 115.549 67.764,115.807 66.890,116.016 66.042 C 116.225 65.194,116.448 64.500,116.511 64.500 C 116.574 64.500,116.723 64.256,116.841 63.958 C 119.107 58.229,125.831 54.528,132.504 55.338 M172.176 56.358 C 172.813 56.463,173.333 56.613,173.333 56.691 C 173.333 56.769,173.436 56.833,173.562 56.833 C 174.421 56.833,176.132 57.984,177.133 59.233 C 177.861 60.142,178.171 62.564,177.761 64.133 C 177.514 65.080,176.433 67.000,176.148 67.000 C 176.085 67.000,175.657 67.254,175.196 67.564 C 174.735 67.874,173.959 68.221,173.471 68.336 C 172.983 68.450,172.483 68.623,172.361 68.720 C 172.222 68.831,170.379 68.924,167.403 68.970 L 162.667 69.043 162.667 62.605 L 162.667 56.167 166.843 56.167 C 169.199 56.167,171.523 56.250,172.176 56.358 M253.250 56.470 C 257.882 57.576,261.354 59.662,263.146 62.417 C 263.385 62.783,263.635 63.124,263.701 63.173 C 263.974 63.376,264.980 65.484,265.249 66.417 C 265.407 66.967,265.605 67.549,265.688 67.712 C 266.208 68.720,266.213 74.781,265.694 75.164 C 265.630 75.211,265.404 75.849,265.193 76.581 C 264.981 77.314,264.757 77.951,264.696 77.998 C 264.634 78.045,264.412 78.448,264.202 78.893 C 263.719 79.917,263.040 80.787,261.649 82.162 C 260.053 83.740,259.605 84.051,257.667 84.926 C 257.162 85.154,256.563 85.441,256.333 85.565 C 256.104 85.689,255.204 85.922,254.333 86.081 C 253.463 86.241,252.613 86.442,252.445 86.529 C 252.278 86.615,249.897 86.731,247.154 86.786 L 242.167 86.886 242.167 71.506 L 242.167 56.126 247.375 56.219 C 250.240 56.269,252.883 56.383,253.250 56.470 M307.485 59.066 C 307.570 59.167,307.806 59.737,308.010 60.333 C 308.215 60.929,308.436 61.454,308.501 61.500 C 308.565 61.546,308.713 61.883,308.829 62.250 C 308.945 62.617,309.203 63.254,309.402 63.667 C 309.601 64.079,309.907 64.848,310.083 65.375 C 310.259 65.902,310.462 66.333,310.535 66.333 C 310.607 66.333,310.667 66.443,310.667 66.578 C 310.667 66.815,310.876 67.351,311.518 68.762 C 311.688 69.136,311.942 69.767,312.083 70.165 C 312.223 70.562,312.401 70.969,312.478 71.069 C 312.554 71.169,312.756 71.662,312.926 72.167 C 313.096 72.671,313.317 73.196,313.417 73.333 C 313.517 73.471,313.739 73.996,313.910 74.500 C 314.081 75.004,314.359 75.678,314.527 75.998 C 314.696 76.317,314.833 76.636,314.833 76.706 C 314.833 76.776,311.225 76.833,306.816 76.833 C 299.246 76.833,298.804 76.817,298.916 76.542 C 298.981 76.381,299.114 76.025,299.211 75.750 C 299.308 75.475,299.437 75.212,299.496 75.167 C 299.556 75.121,299.782 74.596,299.999 74.000 C 300.216 73.404,300.483 72.767,300.592 72.583 C 300.701 72.400,300.931 71.837,301.102 71.333 C 301.274 70.829,301.457 70.379,301.509 70.333 C 301.562 70.287,301.782 69.762,302.000 69.167 C 302.218 68.571,302.445 68.046,302.506 68.000 C 302.567 67.954,302.789 67.392,303.000 66.750 C 303.211 66.108,303.436 65.546,303.500 65.500 C 303.565 65.454,303.780 64.943,303.979 64.363 C 304.178 63.784,304.443 63.146,304.568 62.947 C 304.693 62.747,304.928 62.171,305.089 61.667 C 305.250 61.163,305.436 60.712,305.502 60.667 C 305.568 60.621,305.796 60.096,306.009 59.500 C 306.222 58.904,306.509 58.239,306.647 58.022 L 306.898 57.626 307.115 58.254 C 307.235 58.599,307.401 58.965,307.485 59.066 M173.417 72.612 C 173.600 72.713,174.349 72.959,175.081 73.160 C 175.814 73.361,176.451 73.583,176.498 73.654 C 176.545 73.725,176.902 73.983,177.293 74.228 C 177.683 74.472,178.225 74.990,178.498 75.378 C 178.771 75.766,179.071 76.174,179.164 76.285 C 180.022 77.303,179.964 81.893,179.082 82.775 C 178.945 82.912,178.833 83.096,178.833 83.185 C 178.833 83.873,176.047 85.700,174.414 86.083 C 173.774 86.233,173.100 86.444,172.917 86.552 C 172.687 86.687,171.035 86.766,167.625 86.806 L 162.667 86.863 162.667 79.579 L 162.667 72.296 167.875 72.363 C 171.198 72.406,173.204 72.496,173.417 72.612 " stroke="none" fill="#9c9c9c" fill-rule="evenodd"></path><path id="path1" d="M71.428 18.208 C 71.338 18.769,70.967 23.070,70.669 27.000 C 70.259 32.417,70.551 31.608,68.417 33.250 C 67.940 33.617,66.395 34.829,64.984 35.945 C 63.572 37.060,61.067 39.036,59.417 40.335 C 57.767 41.635,55.742 43.232,54.917 43.885 C 54.092 44.538,52.554 45.754,51.500 46.588 C 50.446 47.422,48.644 48.850,47.495 49.761 C 46.347 50.673,45.200 51.570,44.945 51.755 L 44.484 52.091 46.427 56.087 C 47.496 58.285,48.804 60.983,49.333 62.083 C 49.862 63.183,51.006 65.546,51.875 67.333 C 52.743 69.121,53.997 71.708,54.660 73.083 C 55.323 74.458,56.871 77.614,58.100 80.095 C 59.328 82.577,60.333 84.696,60.333 84.804 C 60.333 85.126,61.521 84.875,61.833 84.486 C 61.879 84.429,62.423 84.216,63.042 84.011 C 63.660 83.807,64.167 83.579,64.167 83.506 C 64.167 83.432,64.335 83.332,64.542 83.283 C 65.142 83.140,66.405 82.651,66.498 82.526 C 66.545 82.462,67.108 82.230,67.750 82.010 C 68.392 81.789,68.954 81.558,69.000 81.496 C 69.046 81.434,69.570 81.215,70.165 81.011 C 70.760 80.807,71.285 80.586,71.332 80.521 C 71.379 80.456,71.960 80.220,72.625 79.997 C 73.290 79.774,73.833 79.539,73.833 79.476 C 73.833 79.413,74.358 79.199,75.000 79.000 C 75.642 78.801,76.167 78.583,76.167 78.515 C 76.167 78.448,76.729 78.216,77.417 78.000 C 78.104 77.784,78.667 77.552,78.667 77.485 C 78.667 77.417,79.192 77.199,79.833 77.000 C 80.475 76.801,81.000 76.575,81.000 76.496 C 81.000 76.418,81.556 76.187,82.236 75.983 C 83.436 75.622,84.024 75.110,83.749 74.666 C 83.701 74.587,83.734 74.478,83.823 74.423 C 83.912 74.368,83.943 74.212,83.891 74.076 C 83.839 73.940,83.872 73.736,83.965 73.623 C 84.218 73.315,84.367 72.167,84.154 72.167 C 84.056 72.167,84.094 72.049,84.238 71.905 C 84.382 71.761,84.509 71.423,84.521 71.155 C 84.542 70.658,84.591 70.367,84.667 70.292 C 84.718 70.241,84.744 70.085,85.106 67.667 C 85.264 66.612,85.443 65.729,85.505 65.703 C 85.567 65.676,85.583 65.471,85.540 65.247 C 85.497 65.023,85.522 64.706,85.594 64.544 C 85.746 64.207,85.716 64.371,86.100 61.750 C 86.261 60.650,86.444 59.729,86.506 59.703 C 86.568 59.676,86.582 59.465,86.537 59.232 C 86.493 59.000,86.535 58.646,86.632 58.446 C 86.728 58.247,86.931 57.183,87.082 56.083 C 87.234 54.983,87.400 53.971,87.452 53.833 C 87.504 53.696,87.530 53.340,87.510 53.042 C 87.491 52.744,87.541 52.500,87.622 52.500 C 87.703 52.500,87.909 51.413,88.080 50.083 C 88.252 48.754,88.435 47.667,88.488 47.667 C 88.540 47.667,88.596 47.460,88.612 47.208 C 88.627 46.956,88.763 45.967,88.913 45.009 C 89.203 43.163,89.166 42.669,88.704 42.199 C 88.546 42.038,88.311 41.704,88.182 41.456 C 88.052 41.208,87.818 40.868,87.661 40.699 C 87.504 40.531,87.198 40.127,86.980 39.802 C 85.175 37.109,84.646 36.357,84.423 36.172 C 84.282 36.055,84.167 35.890,84.167 35.806 C 84.167 35.721,83.867 35.246,83.500 34.750 C 83.133 34.254,82.833 33.769,82.833 33.674 C 82.833 33.578,82.766 33.500,82.683 33.500 C 82.601 33.500,82.368 33.219,82.166 32.875 C 81.964 32.531,81.694 32.190,81.566 32.117 C 81.438 32.043,81.333 31.903,81.333 31.806 C 81.333 31.708,81.071 31.270,80.750 30.833 C 80.429 30.396,80.167 29.959,80.167 29.862 C 80.167 29.765,80.028 29.588,79.858 29.468 C 79.688 29.348,79.421 29.025,79.265 28.750 C 79.108 28.475,78.681 27.837,78.317 27.333 C 77.952 26.829,77.458 26.117,77.219 25.750 C 76.979 25.383,76.737 25.046,76.679 25.000 C 76.622 24.954,76.166 24.298,75.665 23.542 C 75.165 22.785,74.698 22.167,74.628 22.167 C 74.557 22.167,74.500 22.080,74.500 21.974 C 74.500 21.868,74.214 21.399,73.864 20.932 C 73.141 19.967,72.870 19.576,72.149 18.458 C 71.542 17.518,71.539 17.517,71.428 18.208 " stroke="none" fill="#836fd9" fill-rule="evenodd"></path><path id="path2" d="M71.019 17.750 C 71.008 17.842,70.643 18.058,70.208 18.231 C 69.773 18.405,69.340 18.639,69.247 18.752 C 69.154 18.865,68.667 19.132,68.164 19.347 C 67.661 19.561,67.175 19.822,67.083 19.928 C 66.992 20.034,66.561 20.262,66.126 20.435 C 65.691 20.608,65.334 20.807,65.334 20.877 C 65.334 20.947,64.940 21.196,64.458 21.430 C 62.756 22.258,61.941 22.702,61.725 22.918 C 61.604 23.038,61.167 23.266,60.753 23.424 C 60.339 23.583,60.000 23.761,60.000 23.821 C 60.000 23.881,59.587 24.111,59.083 24.333 C 58.579 24.555,58.167 24.783,58.167 24.840 C 58.167 24.897,57.773 25.124,57.292 25.345 C 56.810 25.566,56.379 25.796,56.333 25.857 C 56.252 25.965,54.912 26.704,53.583 27.374 C 53.217 27.559,52.879 27.757,52.833 27.814 C 52.788 27.871,52.375 28.098,51.917 28.320 C 51.458 28.542,51.046 28.767,51.000 28.820 C 50.954 28.873,50.542 29.098,50.083 29.320 C 49.625 29.542,49.212 29.773,49.167 29.833 C 49.121 29.894,48.708 30.125,48.250 30.347 C 47.792 30.568,47.379 30.793,47.333 30.847 C 47.288 30.900,46.875 31.125,46.417 31.347 C 45.958 31.568,45.546 31.796,45.500 31.853 C 45.454 31.910,45.117 32.107,44.750 32.292 C 43.434 32.956,42.082 33.701,42.000 33.808 C 41.954 33.868,41.643 34.043,41.307 34.198 C 40.804 34.431,40.636 34.647,40.337 35.446 C 40.138 35.977,39.922 36.451,39.858 36.498 C 39.794 36.545,39.601 36.921,39.431 37.333 C 39.261 37.746,38.869 38.614,38.561 39.262 C 38.252 39.911,38.000 40.567,38.000 40.721 C 38.000 40.874,37.934 41.000,37.853 41.000 C 37.772 41.000,37.533 41.431,37.321 41.958 C 37.110 42.485,36.895 42.954,36.842 43.000 C 36.790 43.046,36.566 43.533,36.344 44.083 C 36.123 44.633,35.887 45.121,35.820 45.167 C 35.754 45.212,35.542 45.695,35.351 46.239 C 35.160 46.783,34.935 47.271,34.852 47.322 C 34.768 47.374,34.570 47.815,34.411 48.302 C 34.251 48.790,34.028 49.281,33.915 49.395 C 33.801 49.508,33.535 50.085,33.322 50.676 C 33.109 51.266,32.880 51.789,32.811 51.837 C 32.639 51.957,32.000 53.476,32.000 53.764 C 32.000 53.894,31.939 54.000,31.864 54.000 C 31.789 54.000,31.551 54.431,31.335 54.958 C 31.119 55.485,30.894 55.954,30.835 56.000 C 30.777 56.046,30.556 56.552,30.344 57.125 C 30.133 57.698,29.900 58.167,29.827 58.167 C 29.754 58.167,29.533 58.649,29.337 59.239 C 29.140 59.830,28.900 60.339,28.802 60.372 C 28.511 60.469,28.425 62.067,28.697 62.345 C 28.825 62.476,29.106 63.071,29.321 63.667 C 29.535 64.262,29.762 64.787,29.824 64.833 C 29.887 64.879,30.116 65.404,30.333 66.000 C 30.551 66.596,30.783 67.121,30.848 67.167 C 30.914 67.212,31.124 67.695,31.315 68.239 C 31.507 68.783,31.720 69.271,31.791 69.322 C 31.861 69.374,32.018 69.717,32.140 70.083 C 32.262 70.450,32.534 71.125,32.745 71.583 C 32.955 72.042,33.266 72.754,33.434 73.167 C 33.603 73.579,33.789 73.954,33.848 74.000 C 33.907 74.046,34.126 74.590,34.334 75.208 C 34.542 75.827,34.763 76.333,34.825 76.333 C 34.888 76.333,35.068 76.744,35.227 77.245 C 35.385 77.746,35.605 78.253,35.717 78.370 C 35.829 78.487,36.101 79.108,36.322 79.750 C 36.544 80.392,36.779 80.954,36.846 81.000 C 36.913 81.046,37.124 81.528,37.315 82.072 C 37.507 82.616,37.721 83.104,37.791 83.156 C 37.862 83.208,38.060 83.662,38.231 84.167 C 38.402 84.671,38.646 85.250,38.772 85.453 C 38.898 85.656,39.162 86.256,39.358 86.786 C 39.555 87.316,39.769 87.787,39.833 87.833 C 39.898 87.879,40.118 88.404,40.322 88.999 C 40.527 89.594,40.749 90.119,40.816 90.165 C 40.883 90.212,41.111 90.719,41.323 91.292 C 41.534 91.865,41.755 92.333,41.813 92.333 C 41.871 92.333,42.016 92.652,42.134 93.042 C 42.252 93.431,42.527 94.125,42.745 94.583 C 42.963 95.042,43.270 95.773,43.427 96.208 C 43.584 96.644,43.768 97.000,43.837 97.000 C 43.905 97.000,44.001 97.169,44.050 97.375 C 44.203 98.017,44.686 99.242,44.822 99.331 C 44.893 99.378,45.048 99.717,45.165 100.083 C 45.283 100.450,45.556 101.087,45.773 101.499 C 45.989 101.910,46.167 102.314,46.167 102.395 C 46.167 102.614,47.216 104.734,47.383 104.851 C 47.462 104.907,47.933 105.044,48.430 105.155 C 48.927 105.266,49.333 105.427,49.333 105.512 C 49.333 105.597,49.425 105.667,49.537 105.667 C 49.830 105.667,52.067 106.377,52.167 106.501 C 52.212 106.558,52.887 106.783,53.667 107.000 C 54.446 107.217,55.121 107.442,55.167 107.500 C 55.212 107.558,55.887 107.783,56.667 108.000 C 57.446 108.217,58.127 108.458,58.179 108.535 C 58.232 108.613,58.870 108.836,59.596 109.032 C 60.322 109.228,60.954 109.442,61.000 109.509 C 61.046 109.575,61.721 109.800,62.500 110.008 C 63.279 110.216,63.954 110.438,64.000 110.501 C 64.098 110.635,66.287 111.333,66.611 111.333 C 66.733 111.333,66.833 111.398,66.833 111.476 C 66.833 111.555,67.490 111.794,68.292 112.007 C 69.094 112.220,69.788 112.450,69.836 112.518 C 69.883 112.586,70.295 112.734,70.752 112.847 C 71.209 112.960,71.972 113.228,72.448 113.443 C 73.867 114.084,74.099 113.956,73.507 112.856 C 73.328 112.523,72.699 111.237,72.110 110.000 C 71.521 108.763,70.571 106.775,70.000 105.583 C 69.429 104.392,68.512 102.479,67.964 101.333 C 67.415 100.188,66.493 98.275,65.915 97.083 C 64.596 94.365,62.686 90.403,61.335 87.583 C 60.325 85.475,59.363 83.482,56.789 78.167 C 56.101 76.746,55.147 74.758,54.669 73.750 C 53.815 71.949,52.945 70.138,50.788 65.667 C 50.190 64.429,49.198 62.367,48.582 61.083 C 47.967 59.800,46.992 57.775,46.416 56.583 C 45.840 55.392,45.127 53.894,44.830 53.254 L 44.292 52.092 45.104 51.356 C 45.551 50.951,46.104 50.500,46.333 50.353 C 46.563 50.206,47.387 49.574,48.167 48.950 C 48.946 48.325,49.771 47.669,50.000 47.493 C 50.229 47.316,51.293 46.477,52.364 45.627 C 53.434 44.778,54.887 43.633,55.591 43.083 C 56.295 42.533,57.181 41.835,57.560 41.531 C 57.940 41.228,58.364 40.890,58.504 40.781 C 59.109 40.310,60.721 39.037,62.517 37.615 C 63.581 36.773,64.698 35.896,65.000 35.667 C 65.804 35.057,68.542 32.879,68.833 32.618 C 68.971 32.494,69.318 32.231,69.605 32.033 C 70.120 31.677,70.128 31.650,70.238 29.878 C 70.300 28.891,70.455 27.183,70.584 26.083 C 70.891 23.467,71.229 18.333,71.122 17.913 C 71.076 17.732,71.030 17.658,71.019 17.750 " stroke="none" fill="#432e9b" fill-rule="evenodd"></path><path id="path3" d="M71.209 19.417 C 71.211 19.783,71.245 19.914,71.285 19.706 C 71.324 19.499,71.323 19.199,71.281 19.040 C 71.239 18.880,71.207 19.050,71.209 19.417 M45.847 55.083 C 45.847 55.175,45.991 55.512,46.167 55.833 C 46.342 56.154,46.486 56.342,46.486 56.250 C 46.486 56.158,46.342 55.821,46.167 55.500 C 45.991 55.179,45.847 54.992,45.847 55.083 M86.565 58.571 C 86.515 58.702,86.502 58.983,86.536 59.196 C 86.581 59.481,86.620 59.418,86.682 58.958 C 86.769 58.311,86.723 58.159,86.565 58.571 M49.034 61.746 C 49.233 62.157,49.425 62.464,49.460 62.429 C 49.535 62.354,48.862 61.000,48.749 61.000 C 48.706 61.000,48.834 61.336,49.034 61.746 M50.847 65.417 C 50.847 65.508,50.991 65.846,51.167 66.167 C 51.342 66.487,51.486 66.675,51.486 66.583 C 51.486 66.492,51.342 66.154,51.167 65.833 C 50.991 65.512,50.847 65.325,50.847 65.417 M52.667 69.230 C 52.667 69.409,53.163 70.333,53.259 70.333 C 53.304 70.333,53.218 70.090,53.066 69.792 C 52.757 69.183,52.667 69.056,52.667 69.230 M53.349 70.583 C 53.349 70.675,53.567 71.162,53.833 71.667 C 54.100 72.171,54.318 72.508,54.318 72.417 C 54.318 72.325,54.100 71.837,53.833 71.333 C 53.567 70.829,53.349 70.492,53.349 70.583 M54.910 73.917 C 55.061 74.283,55.262 74.658,55.357 74.750 C 55.453 74.842,55.408 74.617,55.257 74.250 C 55.106 73.883,54.905 73.508,54.809 73.417 C 54.714 73.325,54.759 73.550,54.910 73.917 M83.940 73.633 C 83.865 73.752,83.783 74.127,83.756 74.466 C 83.679 75.462,83.554 75.587,82.244 75.980 C 81.560 76.186,81.000 76.418,81.000 76.496 C 81.000 76.575,80.475 76.801,79.833 77.000 C 79.192 77.199,78.667 77.417,78.667 77.485 C 78.667 77.552,78.104 77.784,77.417 78.000 C 76.729 78.216,76.167 78.448,76.167 78.515 C 76.167 78.583,75.642 78.801,75.000 79.000 C 74.358 79.199,73.833 79.413,73.833 79.476 C 73.833 79.539,73.290 79.774,72.625 79.997 C 71.960 80.220,71.379 80.456,71.332 80.521 C 71.285 80.586,70.760 80.807,70.165 81.011 C 69.570 81.215,69.046 81.434,69.000 81.496 C 68.954 81.558,68.392 81.789,67.750 82.010 C 67.108 82.230,66.545 82.462,66.498 82.526 C 66.405 82.651,65.142 83.140,64.542 83.283 C 64.335 83.332,64.167 83.432,64.167 83.506 C 64.167 83.579,63.660 83.807,63.042 84.011 C 62.423 84.216,61.879 84.429,61.833 84.486 C 61.514 84.884,60.333 85.125,60.334 84.792 C 60.336 84.548,57.637 79.141,57.555 79.223 C 57.525 79.253,58.820 82.009,60.434 85.347 C 62.048 88.685,63.801 92.317,64.331 93.417 C 64.860 94.517,65.799 96.467,66.417 97.750 C 67.036 99.033,67.973 100.983,68.499 102.083 C 69.456 104.084,71.084 107.455,73.116 111.644 L 74.197 113.871 76.660 108.957 L 79.124 104.043 79.337 102.313 C 79.455 101.362,79.606 100.508,79.673 100.417 C 79.740 100.325,79.959 99.013,80.160 97.500 C 80.361 95.987,80.586 94.633,80.661 94.491 C 80.735 94.348,80.970 92.960,81.183 91.407 C 81.395 89.854,81.617 88.546,81.675 88.500 C 81.734 88.454,81.958 87.104,82.174 85.500 C 82.390 83.896,82.614 82.546,82.672 82.500 C 82.792 82.403,83.520 77.847,83.543 77.042 C 83.551 76.744,83.626 76.500,83.708 76.500 C 83.791 76.500,83.842 76.294,83.822 76.042 C 83.802 75.790,83.842 75.451,83.912 75.289 C 83.981 75.127,84.003 74.811,83.960 74.586 C 83.917 74.362,83.954 74.154,84.043 74.124 C 84.132 74.095,84.176 73.924,84.140 73.744 C 84.092 73.502,84.040 73.473,83.940 73.633 M55.516 75.083 C 55.516 75.175,55.734 75.662,56.000 76.167 C 56.266 76.671,56.484 77.008,56.484 76.917 C 56.484 76.825,56.266 76.337,56.000 75.833 C 55.734 75.329,55.516 74.992,55.516 75.083 M56.735 77.643 C 56.784 77.721,56.903 77.994,57.000 78.249 C 57.097 78.504,57.217 78.672,57.267 78.622 C 57.366 78.523,56.881 77.500,56.736 77.500 C 56.687 77.500,56.687 77.564,56.735 77.643 " stroke="none" fill="#6b53cb" fill-rule="evenodd"></path><path id="path4" d="M71.167 18.278 C 71.167 18.992,71.244 18.968,71.389 18.208 C 71.448 17.897,71.423 17.667,71.329 17.667 C 71.240 17.667,71.167 17.942,71.167 18.278 M71.042 20.583 C 71.044 20.950,71.078 21.080,71.118 20.873 C 71.158 20.666,71.156 20.366,71.115 20.206 C 71.073 20.047,71.040 20.217,71.042 20.583 M70.436 27.369 C 70.377 28.129,70.283 29.313,70.227 30.000 C 70.172 30.688,70.168 31.211,70.219 31.164 C 70.337 31.054,70.722 26.166,70.620 26.064 C 70.578 26.023,70.496 26.610,70.436 27.369 M69.167 32.333 C 68.938 32.513,68.832 32.661,68.933 32.663 C 69.033 32.665,69.251 32.517,69.417 32.333 C 69.797 31.913,69.704 31.913,69.167 32.333 M67.193 33.926 C 66.445 34.527,65.833 35.057,65.833 35.104 C 65.833 35.150,66.265 34.848,66.792 34.431 C 68.298 33.239,68.758 32.846,68.651 32.839 C 68.597 32.836,67.940 33.325,67.193 33.926 M64.069 36.432 L 63.417 37.030 64.125 36.501 C 64.757 36.029,64.948 35.833,64.778 35.833 C 64.747 35.833,64.428 36.103,64.069 36.432 M62.417 37.685 C 61.146 38.711,60.952 38.984,62.118 38.105 C 63.003 37.438,63.491 36.984,63.302 37.006 C 63.273 37.009,62.875 37.315,62.417 37.685 M59.706 39.792 C 59.146 40.227,58.684 40.642,58.678 40.713 C 58.672 40.785,59.154 40.452,59.750 39.975 C 60.743 39.179,60.932 39.000,60.778 39.000 C 60.748 39.000,60.266 39.356,59.706 39.792 M57.736 41.429 L 57.083 42.024 57.792 41.484 C 58.439 40.991,58.597 40.833,58.444 40.833 C 58.414 40.833,58.095 41.101,57.736 41.429 M56.236 42.598 L 55.583 43.197 56.292 42.668 C 56.924 42.196,57.115 42.000,56.944 42.000 C 56.914 42.000,56.595 42.269,56.236 42.598 M54.750 43.722 C 51.585 46.235,50.833 46.854,50.833 46.946 C 50.833 47.004,50.965 46.938,51.125 46.800 C 51.285 46.661,52.335 45.821,53.458 44.932 C 54.581 44.044,55.500 43.283,55.500 43.242 C 55.500 43.130,55.474 43.147,54.750 43.722 M50.167 47.333 C 49.938 47.513,49.832 47.661,49.933 47.663 C 50.033 47.665,50.251 47.517,50.417 47.333 C 50.797 46.913,50.704 46.913,50.167 47.333 M48.183 48.923 C 47.441 49.523,46.833 50.059,46.833 50.116 C 46.833 50.172,46.965 50.108,47.125 49.973 C 47.285 49.838,47.867 49.361,48.417 48.913 C 49.779 47.804,49.746 47.833,49.633 47.833 C 49.578 47.833,48.926 48.324,48.183 48.923 M45.474 51.042 C 44.907 51.523,44.414 52.009,44.376 52.121 C 44.339 52.233,44.559 52.083,44.865 51.788 C 45.171 51.492,45.720 51.010,46.086 50.717 C 46.451 50.424,46.695 50.180,46.627 50.175 C 46.559 50.171,46.040 50.560,45.474 51.042 M45.008 53.520 C 44.992 53.729,45.697 55.192,45.775 55.113 C 45.820 55.069,45.667 54.669,45.436 54.225 C 45.205 53.780,45.012 53.463,45.008 53.520 M46.167 56.064 C 46.167 56.243,46.663 57.167,46.759 57.167 C 46.804 57.167,46.718 56.923,46.566 56.625 C 46.257 56.017,46.167 55.890,46.167 56.064 M47.016 57.750 C 47.016 57.842,47.271 58.404,47.583 59.000 C 47.895 59.596,48.150 60.008,48.150 59.917 C 48.150 59.825,47.895 59.262,47.583 58.667 C 47.271 58.071,47.016 57.658,47.016 57.750 M48.167 60.221 C 48.167 60.397,48.657 61.333,48.749 61.333 C 48.790 61.333,48.775 61.202,48.717 61.042 C 48.582 60.671,48.167 60.051,48.167 60.221 M49.009 61.854 C 48.992 62.050,50.702 65.520,50.778 65.444 C 50.820 65.403,50.441 64.554,49.936 63.559 C 49.430 62.564,49.013 61.797,49.009 61.854 M51.000 66.062 C 51.000 66.242,51.662 67.500,51.757 67.500 C 51.803 67.500,51.679 67.181,51.483 66.792 C 51.097 66.026,51.000 65.880,51.000 66.062 M51.840 67.688 C 51.829 67.865,52.657 69.667,52.750 69.667 C 52.798 69.667,52.734 69.418,52.607 69.113 C 52.316 68.419,51.849 67.549,51.840 67.688 M53.000 70.229 C 53.000 70.396,53.659 71.667,53.745 71.667 C 53.785 71.667,53.682 71.366,53.518 70.998 C 53.219 70.331,53.000 70.006,53.000 70.229 M53.841 71.854 C 53.824 72.075,54.685 73.870,54.768 73.787 C 54.816 73.739,54.629 73.261,54.352 72.725 C 54.076 72.189,53.846 71.797,53.841 71.854 M55.000 74.383 C 55.000 74.583,56.881 78.341,56.948 78.274 C 57.009 78.213,55.250 74.528,55.077 74.354 C 55.034 74.312,55.000 74.325,55.000 74.383 M57.000 78.557 C 57.000 78.727,57.657 80.000,57.745 80.000 C 57.846 80.000,57.333 78.782,57.151 78.592 C 57.068 78.505,57.000 78.489,57.000 78.557 M57.842 80.203 C 57.830 80.376,59.495 83.833,59.591 83.833 C 59.635 83.833,59.569 83.590,59.443 83.292 C 59.099 82.474,57.851 80.066,57.842 80.203 M59.842 84.350 C 59.824 84.555,61.526 88.030,61.605 87.951 C 61.650 87.905,61.274 87.054,60.769 86.059 C 60.264 85.064,59.847 84.295,59.842 84.350 M61.842 88.529 C 61.827 88.725,63.707 92.516,63.782 92.441 C 63.821 92.401,63.403 91.479,62.852 90.393 C 62.301 89.306,61.847 88.467,61.842 88.529 M63.833 92.722 C 63.833 92.897,64.657 94.500,64.747 94.500 C 64.852 94.500,64.178 92.950,63.989 92.758 C 63.904 92.671,63.833 92.655,63.833 92.722 M64.841 94.719 C 64.828 94.943,65.695 96.694,65.778 96.611 C 65.821 96.568,65.629 96.095,65.352 95.558 C 65.076 95.022,64.846 94.644,64.841 94.719 M65.833 96.890 C 65.833 97.073,66.493 98.333,66.589 98.333 C 66.702 98.333,66.187 97.121,65.991 96.925 C 65.904 96.838,65.833 96.822,65.833 96.890 M66.842 98.869 C 66.830 99.043,68.495 102.500,68.591 102.500 C 68.635 102.500,68.569 102.256,68.443 101.958 C 68.099 101.140,66.851 98.733,66.842 98.869 M68.675 102.695 C 68.662 102.863,70.496 106.667,70.590 106.667 C 70.635 106.667,70.569 106.423,70.443 106.125 C 70.105 105.320,68.685 102.566,68.675 102.695 M70.667 106.907 C 70.667 107.103,72.536 110.853,72.601 110.788 C 72.642 110.746,72.253 109.840,71.736 108.773 C 70.906 107.060,70.667 106.642,70.667 106.907 M72.667 111.063 C 72.667 111.161,73.801 113.590,73.954 113.819 C 74.292 114.328,73.998 113.435,73.496 112.429 C 72.848 111.132,72.667 110.833,72.667 111.063 " stroke="none" fill="#5444ad" fill-rule="evenodd"></path></g></svg>