<?xml version="1.0" encoding="utf-8"?>
<!-- Generator: Adobe Illustrator 24.1.1, SVG Export Plug-In . SVG Version: 6.00 Build 0)  -->
<svg version="1.1" id="Layer_1" xmlns="http://www.w3.org/2000/svg" xmlns:xlink="http://www.w3.org/1999/xlink" x="0px" y="0px"
	 viewBox="0 0 512 512" style="enable-background:new 0 0 512 512;" xml:space="preserve">
<g>
	<path d="M303.7,5.1l19.2,4.2l15.5,5.6l12.5,6.4l9.5,6.8l7.2,7.2l5.3,7.2l3.4,7l2.1,6.4l0.9,5.5l0.4,4.3l-0.3,2.7v113.4l-1.1,13.4
		l-2.7,11.7l-4.5,9.8l-5.5,8l-6.4,6.5l-7,5.3l-7.5,4.1l-7.5,3l-7,2.2l-6.4,1.4l-5.5,0.9l-4.5,0.4H187.4l-14.6,1.1l-12.5,2.9
		l-10.6,4.7l-8.7,5.7l-7.1,6.8l-5.7,7.4l-4.2,7.7l-3.2,7.8l-2.1,7.5l-1.5,6.8l-0.8,5.7l-0.4,4.5v64.9H68.6l-4.5-0.7l-6-1.5l-6.7-2.5
		l-7.5-3.8l-7.6-5.5l-7.6-7.6l-7.5-9.8l-6.8-12.5l-6-15.5l-4.4-18.7l-3-22.3L0,255.4l1.3-25.9l3.4-22L9.8,189l6.8-15.1l7.6-12.1
		l8.5-9.3l9-7.1l8.9-5.1L59,137l7.6-2.2l6.8-1.1l5-0.2h3.4l1.3,0.2h173.1v-17.6h-124l-0.2-58.4l-0.4-7.9l1.1-7.2l2.3-6.5l3.6-6
		l5.3-5.5l6.6-4.9l8-4.2l9.4-3.9l10.8-3.1L191.3,6l13.5-2.1l15.1-1.3l16.3-0.8L254,1.3L281,2.4L303.7,5.1z M170.1,47.2l-4.9,7
		l-1.7,8.7l1.7,8.7l4.9,7.2l7,4.7l8.7,1.9l8.7-1.9l7-4.7l4.9-7.2l1.7-8.7l-1.7-8.7l-4.9-7l-7-4.6l-8.7-1.9l-8.7,1.9L170.1,47.2z
		 M447.9,131l5.9,1.3l6.8,2.5l7.5,3.8l7.6,5.7l7.6,7.5l7.5,9.9l6.8,12.5l5.9,15.5l4.5,18.7l3,22l1.1,26.1l-1.3,26.1l-3.4,22
		l-5.1,18.2l-6.8,15.1l-7.6,12.1l-8.5,9.6l-8.9,7l-9,5.1l-8.4,3.4l-7.6,1.9l-6.8,1.1l-5,0.4l-3.4-0.2H255.5v17.4h124l0.3,58.6
		l0.4,7.6l-1.1,7.2l-2.3,6.5l-3.6,6.1l-5.3,5.3l-6.5,5.2l-8,4.2l-9.4,3.6l-10.8,3.1l-12.4,2.7l-13.6,1.9l-15,1.5l-16.4,0.8
		l-17.8,0.3l-26.9-0.8l-22.7-3l-19.1-4.2l-15.5-5.3l-12.5-6.4l-9.5-7.1l-7.2-7.2l-5.3-7.2l-3.4-7l-2.2-6.4l-0.8-5.3l-0.4-4.2
		l0.2-2.7V330.5l1.1-13.6l2.8-11.5l4.4-9.7l5.6-8.1l6.4-6.7l7-5.1l7.5-4.2l7.4-3l7.1-2.2l6.4-1.2l5.5-0.8l7.2-0.7h124l14.7-1.1
		l12.5-2.9l10.6-4.5l8.7-6l7-6.8l5.7-7.4l4.3-7.7l3.2-7.6l2.1-7.4l1.5-6.8l0.8-6l0.4-4.5V130h44.4l3,0.2L447.9,131z M310.5,433.5
		l-4.9,7.1l-1.7,8.7l1.7,8.7l4.9,7l7.1,4.9l8.7,1.7l8.7-1.7l7-4.9l4.9-7l1.7-8.7l-1.7-8.7l-4.9-7.1l-7-4.9l-8.7-1.7l-8.7,1.7
		L310.5,433.5z"/>
</g>
</svg>
